/* XPM */
static char *closeI[] = {
/* width height ncolors chars_per_pixel */
"20 48 43 1",
/* colors */
"  c #D6D6D6",
". c #C5C5C5",
"X c #D7D7D7",
"o c #C6C6C6",
"O c #D8D8D8",
"+ c #A71616",
"@ c #CA7374",
"# c #CB7475",
"$ c #CB7879",
"% c #3C0808",
"& c #CC797A",
"* c #CC7A7B",
"= c #3D0808",
"- c #AC1617",
"; c #DECBCB",
": c #DFCDCD",
"> c #DFCECE",
", c #CDCDCD",
"< c #AF1618",
"1 c #AF1719",
"2 c #B01719",
"3 c #B0181A",
"4 c #B0191B",
"5 c #E1E1E1",
"6 c #C3191A",
"7 c #B11A1C",
"8 c #C4191A",
"9 c #BFBFBF",
"0 c #E3DEDE",
"q c #E3DFDF",
"w c #C0C0C0",
"e c #E4DFDF",
"r c #E4E0E0",
"t c #E4E4E4",
"y c #D3D3D3",
"u c #E5E5E5",
"i c #C71A1B",
"p c #B51719",
"a c #D4D4D4",
"s c #C81A1B",
"d c #B61719",
"f c #C91A1B",
"g c #B2B2B2",
/* pixels */
"uuuuuuuuuuuuuuuuuuuu",
"uuuuuuuuuuuuuuuuuuuu",
"uuuuuuuuuuuuuuuuuuuu",
"uuuuuuuuuuuuuuuuuuuu",
"uuuuuuuuuuuuuuuuuuuu",
"uuuuuuuuuuuuuuuuuuuu",
"uuuuuutaw99watuuuuuu",
"uuuuu5woy  y.w5uuuuu",
"uuuut9,OOOOOO,9tuuuu",
"uuuuaoOOOOOOOO.auuuu",
"uuuuwyOOOOOOOOy9uuuu",
"uuuu9XOOOOOOOOX9uuuu",
"uuuu9 OOOOOOOO 9uuuu",
"uuuuwyOOOOOOOOywuuuu",
"uuuuy.OOOOOOOO.auuuu",
"uuuutw,OOOOOO,wtuuuu",
"uuuuu5w.y Xyo95uuuuu",
"uuuuuutyw99watuuuuuu",
"uuuuuuuuuuuuuuuuuuuu",
"uuuuuuuuuuuuuuuuuuuu",
"uuuuuuuuuuuuuuuuuuuu",
"uuuuuuuuuuuuuuuuuuuu",
"uuuuuuuuuuuuuuuuuuuu",
"gggggggggggggggggggg",
"uuuuuuuuuuuuuuuuuuuu",
"uuuuuuuuuuuuuuuuuuuu",
"uuuuuuuuuuuuuuuuuuuu",
"uuuuuuuuuuuuuuuuuuuu",
"uuuuuuuuuuuuuuuuuuuu",
"uuuuuuuuuuuuuuuuuuuu",
"uuuuuuq*7<<7&0uuuuuu",
"uuuuu>4d8ii6p7:uuuuu",
"uuuur2p-ffff-p1ruuuu",
"uuuu*d-=+ff+=-d$uuuu",
"uuuu48f+=++=+f82uuuu",
"uuuu<sff+%=+ffs<uuuu",
"uuuu<iff+=%+ffi<uuuu",
"uuuu36f+=++=+f67uuuu",
"uuuu#p-=+ff+=-d*uuuu",
"uuuuq7d-ffff-p7quuuu",
"uuuuu;4p6is8d<>uuuuu",
"uuuuuue@2<<3&ruuuuuu",
"uuuuuuuuuuuuuuuuuuuu",
"uuuuuuuuuuuuuuuuuuuu",
"uuuuuuuuuuuuuuuuuuuu",
"uuuuuuuuuuuuuuuuuuuu",
"uuuuuuuuuuuuuuuuuuuu",
"gggggggggggggggggggg"
};
