/* XPM */
static char *closeA[] = {
/* width height ncolors chars_per_pixel */
"20 48 58 1",
/* colors */
"  c #EC7D7E",
". c #EC7E7F",
"X c #EAD6D6",
"o c #F01F21",
"O c #ED8183",
"+ c #ED8283",
"@ c #ED8384",
"# c #ED8385",
"$ c #ED8485",
"% c #A71616",
"& c #EBD9D9",
"* c #EBDADA",
"= c #F11F21",
"- c #3C0808",
"; c #3D0808",
": c #E21D1F",
"> c #E21E20",
", c #AC1617",
"< c #E31F21",
"1 c #E32022",
"2 c #E32123",
"3 c #F0D7D7",
"4 c #F0D9DA",
"5 c #F61F22",
"6 c #F0EBEB",
"7 c #F0ECEC",
"8 c #F0ECED",
"9 c #F1DADA",
"0 c #F1DADB",
"q c #F71F22",
"w c #F1EBEB",
"e c #D0797A",
"r c #D07A7B",
"t c #AF1618",
"y c #F2ECEC",
"u c #F2EDED",
"i c #F2F2F2",
"p c #D17E7F",
"a c #B01719",
"s c #B0181A",
"d c #B0191B",
"f c #D27F80",
"g c #D28081",
"h c #C3191A",
"j c #FA2023",
"k c #E81E20",
"l c #B1191B",
"z c #B11A1C",
"x c #C4191A",
"c c #FB2023",
"v c #BFBFBF",
"b c #E91E20",
"n c #FC2023",
"m c #C71A1B",
"M c #B51719",
"N c #C81A1B",
"B c #B61719",
"V c #C91A1B",
/* pixels */
"iiiiiiiiiiiiiiiiiiii",
"iiiiiiiiiiiiiiiiiiii",
"iiiiiiiiiiiiiiiiiiii",
"iiiiiiiiiiiiiiiiiiii",
"iiiiiiiiiiiiiiiiiiii",
"iiiiiiiiiiiiiiiiiiii",
"iiiiiiy$2::2+wiiiiii",
"iiiii01bqjj5k24iiiii",
"iiiiu>onnnnnno>uiiii",
"iiii$bnnnnnnnnbOiiii",
"iiii1qnnnnnnnnq>iiii",
"iiii:cnnnnnnnnc:iiii",
"iiii:jnnnnnnnnj:iiii",
"iiii<5nnnnnnnn52iiii",
"iiii.knnnnnnnnb#iiii",
"iiiiy2=nnnnnno2yiiii",
"iiiii31k5jcqb:9iiiii",
"iiiiiiy >::<@uiiiiii",
"iiiiiiiiiiiiiiiiiiii",
"iiiiiiiiiiiiiiiiiiii",
"iiiiiiiiiiiiiiiiiiii",
"iiiiiiiiiiiiiiiiiiii",
"iiiiiiiiiiiiiiiiiiii",
"vvvvvvvvvvvvvvvvvvvv",
"iiiiiiiiiiiiiiiiiiii",
"iiiiiiiiiiiiiiiiiiii",
"iiiiiiiiiiiiiiiiiiii",
"iiiiiiiiiiiiiiiiiiii",
"iiiiiiiiiiiiiiiiiiii",
"iiiiiiiiiiiiiiiiiiii",
"iiiiii7gzttzf6iiiiii",
"iiiii*lBxmmhMz&iiiii",
"iiii7aM,VVVV,Ma8iiii",
"iiiigB,;%VV%;,Bpiiii",
"iiiidxV%;%%;%Vxaiiii",
"iiiitNVV%-;%VVNtiiii",
"iiiitmVV%;-%VVmtiiii",
"iiiishV%;%%;%Vhziiii",
"iiiirM,;%VV%;,Bgiiii",
"iiii7zB,VVVV,Mz6iiii",
"iiiiiXlMhmNxBt&iiiii",
"iiiiii7eattsf8iiiiii",
"iiiiiiiiiiiiiiiiiiii",
"iiiiiiiiiiiiiiiiiiii",
"iiiiiiiiiiiiiiiiiiii",
"iiiiiiiiiiiiiiiiiiii",
"iiiiiiiiiiiiiiiiiiii",
"vvvvvvvvvvvvvvvvvvvv"
};
