/* XPM */
static char *closeO[] = {
/* width height ncolors chars_per_pixel */
"20 48 60 1",
/* colors */
"  c #EC7D7E",
". c #EC7E7F",
"X c #EAD6D6",
"o c #ED8183",
"O c #ED8283",
"+ c #ED8384",
"@ c #ED8385",
"# c #ED8485",
"$ c #A71616",
"% c #EBD9D9",
"& c #4C0A0B",
"* c #EBDADA",
"= c #3C0808",
"- c #3D0808",
"; c #E21D1F",
": c #E21E20",
"> c #AC1617",
", c #E31F21",
"< c #E32022",
"1 c #E32123",
"2 c #D11B1D",
"3 c #F0D7D7",
"4 c #F0D9DA",
"5 c #F61F22",
"6 c #F0EBEB",
"7 c #F0ECEC",
"8 c #F0ECED",
"9 c #F1DADA",
"0 c #F1DADB",
"q c #F71F22",
"w c #F1EBEB",
"e c #D0797A",
"r c #D07A7B",
"t c #AF1618",
"y c #E61D20",
"u c #F2ECEC",
"i c #F2EDED",
"p c #F2F2F2",
"a c #D17E7F",
"s c #B01719",
"d c #B0181A",
"f c #B0191B",
"g c #D27F80",
"h c #D28081",
"j c #C3191A",
"k c #FA2023",
"l c #E81E20",
"z c #B1191B",
"x c #B11A1C",
"c c #C4191A",
"v c #FB2023",
"b c #BFBFBF",
"n c #E91E20",
"m c #FC2023",
"M c #D81B1E",
"N c #C71A1B",
"B c #B51719",
"V c #C81A1B",
"C c #B61719",
"Z c #C91A1B",
/* pixels */
"pppppppppppppppppppp",
"pppppppppppppppppppp",
"pppppppppppppppppppp",
"pppppppppppppppppppp",
"pppppppppppppppppppp",
"pppppppppppppppppppp",
"ppppppu#1;;1Owpppppp",
"ppppp0<nqkk5l14ppppp",
"ppppi:yMmmmmMy:ipppp",
"pppp#nM&2mm2&Mnopppp",
"pppp<qm2&22&2mq:pppp",
"pppp;vmm2&&2mmv;pppp",
"pppp;kmm2&&2mmk;pppp",
"pppp,5m2&22&2m51pppp",
"pppp.lM&2mm2&Mn@pppp",
"ppppu1yMmmmmMy1upppp",
"ppppp3<l5kvqn;9ppppp",
"ppppppu :;;,+ipppppp",
"pppppppppppppppppppp",
"pppppppppppppppppppp",
"pppppppppppppppppppp",
"pppppppppppppppppppp",
"pppppppppppppppppppp",
"bbbbbbbbbbbbbbbbbbbb",
"pppppppppppppppppppp",
"pppppppppppppppppppp",
"pppppppppppppppppppp",
"pppppppppppppppppppp",
"pppppppppppppppppppp",
"pppppppppppppppppppp",
"pppppp7hxttxg6pppppp",
"ppppp*zCcNNjBx%ppppp",
"pppp7sB>ZZZZ>Bs8pppp",
"pppphC>-$ZZ$->Capppp",
"ppppfcZ$-$$-$Zcspppp",
"pppptVZZ$=-$ZZVtpppp",
"pppptNZZ$-=$ZZNtpppp",
"ppppdjZ$-$$-$Zjxpppp",
"pppprB>-$ZZ$->Chpppp",
"pppp7xC>ZZZZ>Bx6pppp",
"pppppXzBjNVcCt%ppppp",
"pppppp7esttdg8pppppp",
"pppppppppppppppppppp",
"pppppppppppppppppppp",
"pppppppppppppppppppp",
"pppppppppppppppppppp",
"pppppppppppppppppppp",
"bbbbbbbbbbbbbbbbbbbb"
};
