/* XPM */
static char *maximizeI[] = {
/* width height ncolors chars_per_pixel */
"20 48 46 1",
/* colors */
"  c #D6D6D6",
". c #7CB07E",
"X c #7CB07F",
"o c #C5C5C5",
"O c #D7D7D7",
"+ c #C6C6C6",
"@ c #D8D8D8",
"# c #146118",
"$ c #CBD8CC",
"% c #DEE2DF",
"& c #CDCDCD",
"* c #DFE2DF",
"= c #DFE2E0",
"- c #CDD9CE",
"; c #19791E",
": c #197A1E",
"> c #E0E2E0",
", c #CED9CF",
"< c #1A791E",
"1 c #1A7B1F",
"2 c #E1E1E1",
"3 c #CFD9CF",
"4 c #1A801F",
"5 c #75AD78",
"6 c #1B7C20",
"7 c #1B8020",
"8 c #1B8120",
"9 c #76AD79",
"0 c #BFBFBF",
"q c #1C7C21",
"w c #1C8821",
"e c #C0C0C0",
"r c #1D7C22",
"t c #1D7D22",
"y c #E4E4E4",
"u c #D3D3D3",
"i c #E5E5E5",
"p c #1E8E23",
"a c #D4D4D4",
"s c #7AAF7C",
"d c #1F9324",
"f c #7AB07D",
"g c #0F4812",
"h c #B2B2B2",
"j c #7BB07D",
"k c #7BB07E",
/* pixels */
"iiiiiiiiiiiiiiiiiiii",
"iiiiiiiiiiiiiiiiiiii",
"iiiiiiiiiiiiiiiiiiii",
"iiiiiiiiiiiiiiiiiiii",
"iiiiiiiiiiiiiiiiiiii",
"iiiiiiiiiiiiiiiiiiii",
"iiiiiiyae00eayiiiiii",
"iiiii2e+u  uoe2iiiii",
"iiiiy0&@@@@@@&0yiiii",
"iiiia+@@@@@@@@oaiiii",
"iiiieu@@@@@@@@u0iiii",
"iiii0O@@@@@@@@O0iiii",
"iiii0 @@@@@@@@ 0iiii",
"iiiieu@@@@@@@@ueiiii",
"iiiiuo@@@@@@@@oaiiii",
"iiiiye&@@@@@@&eyiiii",
"iiiii2eou Ou+02iiiii",
"iiiiiiyue00eayiiiiii",
"iiiiiiiiiiiiiiiiiiii",
"iiiiiiiiiiiiiiiiiiii",
"iiiiiiiiiiiiiiiiiiii",
"iiiiiiiiiiiiiiiiiiii",
"iiiiiiiiiiiiiiiiiiii",
"hhhhhhhhhhhhhhhhhhhh",
"iiiiiiiiiiiiiiiiiiii",
"iiiiiiiiiiiiiiiiiiii",
"iiiiiiiiiiiiiiiiiiii",
"iiiiiiiiiiiiiiiiiiii",
"iiiiiiiiiiiiiiiiiiii",
"iiiiiiiiiiiiiiiiiiii",
"iiiiii*Xt::tf%iiiiii",
"iiiii3q8p;;p4t-iiiii",
"iiii>1wdd##ddw1>iiii",
"iiii.8ddd##ddd7siiii",
"iiiiqpddd##dddp1iiii",
"iiii:;###gg###;:iiii",
"iiii:;###gg###;:iiii",
"iiii6pddd##dddptiiii",
"iiii94ddd##ddd7kiiii",
"iiii*rwdd##ddwr*iiii",
"iiiii$q4p;<p8:,iiiii",
"iiiiii=51::6j>iiiiii",
"iiiiiiiiiiiiiiiiiiii",
"iiiiiiiiiiiiiiiiiiii",
"iiiiiiiiiiiiiiiiiiii",
"iiiiiiiiiiiiiiiiiiii",
"iiiiiiiiiiiiiiiiiiii",
"hhhhhhhhhhhhhhhhhhhh"
};
