/* XPM */
static char *maximizeA[] = {
/* width height ncolors chars_per_pixel */
"20 48 60 1",
/* colors */
"  c #D6E3D7",
". c #7CB37F",
"X c #D8EAD9",
"o c #EBEEEB",
"O c #EBEEEC",
"+ c #EBF0EC",
"@ c #D9E4DA",
"# c #ECEFEC",
"$ c #ECEFED",
"% c #ECF0EC",
"& c #ECF0ED",
"* c #DAE5DA",
"= c #DAE5DB",
"- c #24AD2B",
"; c #146118",
": c #DAEADB",
"> c #80B582",
", c #EDEFED",
"< c #EDF0ED",
"1 c #25AE2C",
"2 c #DBEBDC",
"3 c #25B32C",
"4 c #25B32D",
"5 c #25B42D",
"6 c #81B683",
"7 c #81B684",
"8 c #26AE2D",
"9 c #81CF85",
"0 c #82B684",
"q c #82B785",
"w c #27AF2E",
"e c #82CF86",
"r c #27BB2E",
"t c #28AF2F",
"y c #28C130",
"u c #29C431",
"i c #29C531",
"p c #29C631",
"a c #19791E",
"s c #197A1E",
"d c #F2F2F2",
"f c #85D089",
"g c #1A791E",
"h c #1A7B1F",
"j c #1A801F",
"k c #86D18A",
"l c #1B7C20",
"z c #1B8020",
"x c #1B8120",
"c c #87D18A",
"v c #87D18B",
"b c #BFBFBF",
"n c #1C7C21",
"m c #88D18C",
"M c #1C8821",
"N c #1D7D22",
"B c #1E8E23",
"V c #1F9324",
"C c #0F4812",
"Z c #7BB37E",
/* pixels */
"dddddddddddddddddddd",
"dddddddddddddddddddd",
"dddddddddddddddddddd",
"dddddddddddddddddddd",
"dddddddddddddddddddd",
"dddddddddddddddddddd",
"dddddd%mt--tk+dddddd",
"ddddd2w5yuuy3t:ddddd",
"dddd<1rppppppr1<dddd",
"ddddv5pppppppp4fdddd",
"ddddwyppppppppy1dddd",
"dddd-ippppppppi-dddd",
"dddd-uppppppppu-dddd",
"dddd8yppppppppytdddd",
"dddde3pppppppp4vdddd",
"dddd%trpppppprt%dddd",
"dddddXw3yuiy5-2ddddd",
"dddddd&91--8c<dddddd",
"dddddddddddddddddddd",
"dddddddddddddddddddd",
"dddddddddddddddddddd",
"dddddddddddddddddddd",
"dddddddddddddddddddd",
"bbbbbbbbbbbbbbbbbbbb",
"dddddddddddddddddddd",
"dddddddddddddddddddd",
"dddddddddddddddddddd",
"dddddddddddddddddddd",
"dddddddddddddddddddd",
"dddddddddddddddddddd",
"dddddd#qNssN6odddddd",
"ddddd=nxBaaBjN@ddddd",
"dddd$hMVV;;VVMh,dddd",
"dddd0xVVV;;VVVz>dddd",
"ddddnBVVV;;VVVBhdddd",
"ddddsa;;;CC;;;asdddd",
"ddddsa;;;CC;;;asdddd",
"ddddlBVVV;;VVVBNdddd",
"dddd.jVVV;;VVVz0dddd",
"dddd#NMVV;;VVMNOdddd",
"ddddd njBagBxs*ddddd",
"dddddd#Zhssl7,dddddd",
"dddddddddddddddddddd",
"dddddddddddddddddddd",
"dddddddddddddddddddd",
"dddddddddddddddddddd",
"dddddddddddddddddddd",
"bbbbbbbbbbbbbbbbbbbb"
};
