/* XPM */
static char *maximizeO[] = {
/* width height ncolors chars_per_pixel */
"20 48 60 1",
/* colors */
"  c #D6E3D7",
". c #7CB37F",
"X c #22A328",
"o c #D8EAD9",
"O c #EBEEEB",
"+ c #EBEEEC",
"@ c #EBF0EC",
"# c #D9E4DA",
"$ c #ECEFEC",
"% c #ECEFED",
"& c #ECF0EC",
"* c #ECF0ED",
"= c #DAE5DA",
"- c #DAE5DB",
"; c #24AD2B",
": c #146118",
"> c #DAEADB",
", c #80B582",
"< c #EDEFED",
"1 c #EDF0ED",
"2 c #25AE2C",
"3 c #DBEBDC",
"4 c #25B32C",
"5 c #25B32D",
"6 c #25B42D",
"7 c #81B683",
"8 c #81B684",
"9 c #26AE2D",
"0 c #81CF85",
"q c #82B684",
"w c #82B785",
"e c #27AF2E",
"r c #82CF86",
"t c #27BB2E",
"y c #28AF2F",
"u c #28C130",
"i c #29C631",
"p c #19791E",
"a c #197A1E",
"s c #F2F2F2",
"d c #85D089",
"f c #1A791E",
"g c #1A7B1F",
"h c #1A801F",
"j c #86D18A",
"k c #1B7C20",
"l c #1B8020",
"z c #1B8120",
"x c #1B8220",
"c c #87D18A",
"v c #87D18B",
"b c #BFBFBF",
"n c #1C7C21",
"m c #88D18C",
"M c #1C8821",
"N c #1D7D22",
"B c #1E8E23",
"V c #1F9324",
"C c #0F4812",
"Z c #7BB37E",
/* pixels */
"ssssssssssssssssssss",
"ssssssssssssssssssss",
"ssssssssssssssssssss",
"ssssssssssssssssssss",
"ssssssssssssssssssss",
"ssssssssssssssssssss",
"ssssss&my;;yj@ssssss",
"sssss3e6uXXu4y>sssss",
"ssss12tiixxiit21ssss",
"ssssv6iiixxiii5dssss",
"sssseuiiixxiiiu2ssss",
"ssss;Xxxx::xxxX;ssss",
"ssss;Xxxx::xxxX;ssss",
"ssss9uiiixxiiiuyssss",
"ssssr4iiixxiii5vssss",
"ssss&ytiixxiity&ssss",
"sssssoe4uXXu6;3sssss",
"ssssss*02;;9c1ssssss",
"ssssssssssssssssssss",
"ssssssssssssssssssss",
"ssssssssssssssssssss",
"ssssssssssssssssssss",
"ssssssssssssssssssss",
"bbbbbbbbbbbbbbbbbbbb",
"ssssssssssssssssssss",
"ssssssssssssssssssss",
"ssssssssssssssssssss",
"ssssssssssssssssssss",
"ssssssssssssssssssss",
"ssssssssssssssssssss",
"ssssss$wNaaN7Ossssss",
"sssss-nzBppBhN#sssss",
"ssss%gMVV::VVMg<ssss",
"ssssqzVVV::VVVl,ssss",
"ssssnBVVV::VVVBgssss",
"ssssap:::CC:::passss",
"ssssap:::CC:::passss",
"sssskBVVV::VVVBNssss",
"ssss.hVVV::VVVlqssss",
"ssss$NMVV::VVMN+ssss",
"sssss nhBpfBza=sssss",
"ssssss$Zgaak8<ssssss",
"ssssssssssssssssssss",
"ssssssssssssssssssss",
"ssssssssssssssssssss",
"ssssssssssssssssssss",
"ssssssssssssssssssss",
"bbbbbbbbbbbbbbbbbbbb"
};
