/* XPM */
static char * menuButtonA_xpm[] = {
"24 48 9 1",
" 	c #F2F2F2",
".	c #E9E9E9",
"+	c #D4D4D4",
"@	c #EAEAEA",
"#	c #F1F2F1",
"$	c #F1F1F1",
"%	c #F3F3F3",
"&	c #F4F3F4",
"*	c #CBCBCB",
"                        ",
"                        ",
"                        ",
"                        ",
"                        ",
"                        ",
"                        ",
"                        ",
"                        ",
"                        ",
"                        ",
"                        ",
"                        ",
"                        ",
"                        ",
"                        ",
"                        ",
"                        ",
"                        ",
"                        ",
"                        ",
"                        ",
"........................",
"++++++++++++++++++++++++",
"@@@@@@@@@@@@@@@@@@@@@@@@",
"                        ",
"                        ",
"                        ",
"        #$$$$$$#        ",
"                        ",
"                        ",
"                        ",
"                        ",
"                     %  ",
"                     %  ",
"                     &  ",
"                     &  ",
"                     %  ",
"                     %  ",
"                        ",
"                        ",
"                        ",
"                        ",
"                        ",
"                        ",
"                        ",
"........................",
"************************"};
