/* XPM */
static char *menusel[] = {
/* width height ncolors chars_per_pixel */
"2 2 2 1",
/* colors */
"  c #4682F2",
". c #4989FF",
/* pixels */
"..",
". "
};
