/* XPM */
static char *minimizeA[] = {
/* width height ncolors chars_per_pixel */
"20 48 60 1",
/* colors */
"  c #B48B0A",
". c #B48B0B",
"X c #C69808",
"o c #C79808",
"O c #EBB509",
"+ c #FDC30A",
"@ c #EAE5D4",
"# c #ECB509",
"$ c #FEC30A",
"% c #EBE6D7",
"& c #EBE6D8",
"* c #EBE7D8",
"= c #FFC40A",
"- c #B88E07",
"; c #CA9B08",
": c #EED071",
"> c #EED073",
", c #EED177",
"< c #B98E07",
"1 c #EED278",
"2 c #EED279",
"3 c #CB9B08",
"4 c #A88107",
"5 c #CC9C08",
"6 c #866705",
"7 c #F0EFEA",
"8 c #F0EFEB",
"9 c #F0EFEC",
"0 c #F1EAD4",
"q c #F1EBD7",
"w c #F1EBD8",
"e c #F3BB0A",
"r c #F2F0EA",
"t c #F2F0EB",
"y c #F2F0EC",
"u c #F2F2F2",
"i c #F4BB0A",
"p c #C09308",
"a c #C09408",
"s c #BFBFBF",
"d c #D2BA70",
"f c #D2BB72",
"g c #C19408",
"h c #E5B009",
"j c #E5B10A",
"k c #E5B10B",
"l c #D3BD76",
"z c #D3BD77",
"x c #E6B10B",
"c c #E6B10C",
"v c #E6B20D",
"b c #D4BD78",
"n c #D4BE78",
"m c #F9C00A",
"M c #B28907",
"N c #FAC00A",
"B c #B38A08",
"V c #B38A09",
"C c #B38A0A",
"Z c #B38B0A",
/* pixels */
"uuuuuuuuuuuuuuuuuuuu",
"uuuuuuuuuuuuuuuuuuuu",
"uuuuuuuuuuuuuuuuuuuu",
"uuuuuuuuuuuuuuuuuuuu",
"uuuuuuuuuuuuuuuuuuuu",
"uuuuuuuuuuuuuuuuuuuu",
"uuuuuut2vhhv1ruuuuuu",
"uuuuuwc#N++mOvquuuuu",
"uuuuyje======ejyuuuu",
"uuuu2#========#,uuuu",
"uuuucN========Njuuuu",
"uuuuh$========$huuuu",
"uuuuh+========+huuuu",
"uuuucm========mvuuuu",
"uuuu>O========#2uuuu",
"uuuutvi======evtuuuu",
"uuuuu0cOm+$N#hwuuuuu",
"uuuuuuy:khhx1yuuuuuu",
"uuuuuuuuuuuuuuuuuuuu",
"uuuuuuuuuuuuuuuuuuuu",
"uuuuuuuuuuuuuuuuuuuu",
"uuuuuuuuuuuuuuuuuuuu",
"uuuuuuuuuuuuuuuuuuuu",
"ssssssssssssssssssss",
"uuuuuuuuuuuuuuuuuuuu",
"uuuuuuuuuuuuuuuuuuuu",
"uuuuuuuuuuuuuuuuuuuu",
"uuuuuuuuuuuuuuuuuuuu",
"uuuuuuuuuuuuuuuuuuuu",
"uuuuuuuuuuuuuuuuuuuu",
"uuuuuu8n.MM.z7uuuuuu",
"uuuuu* <o;;X-.%uuuuu",
"uuuu9Bp555555aB9uuuu",
"uuuun<55555555<luuuu",
"uuuuZo55555555oBuuuu",
"uuuuM4666666664Muuuu",
"uuuuM4666666664Muuuu",
"uuuuCX55555555X.uuuu",
"uuuuf-55555555<buuuu",
"uuuu8.g555555p.8uuuu",
"uuuuu@ -X;3o<M&uuuuu",
"uuuuuu9dVMMVz9uuuuuu",
"uuuuuuuuuuuuuuuuuuuu",
"uuuuuuuuuuuuuuuuuuuu",
"uuuuuuuuuuuuuuuuuuuu",
"uuuuuuuuuuuuuuuuuuuu",
"uuuuuuuuuuuuuuuuuuuu",
"ssssssssssssssssssss"
};
