/* XPM */
static char *titleIQ[] = {
/* width height ncolors chars_per_pixel */
"7 24 8 1",
/* colors */
"  c #B5B5B5",
". c #DFDFDF",
"X c #CECECE",
"o c #E2E2E2",
"O c #D3D3D3",
"+ c #E5E5E5",
"@ c #B2B2B2",
"# c None",
/* pixels */
"++++X@#",
"+++++X@",
"++++++ ",
"++++++O",
"++++++.",
"++++++o",
"++++++o",
"++++++o",
"++++++o",
"++++++o",
"++++++o",
"++++++o",
"++++++o",
"++++++o",
"++++++o",
"++++++o",
"++++++o",
"++++++o",
"++++++o",
"++++++o",
"++++++o",
"++++++o",
"++++++o",
"@@@@@@@"
};
