/* XPM */
static char *titleAS[] = {
/* width height ncolors chars_per_pixel */
"1 24 2 1",
/* colors */
"  c #F2F2F2",
". c #BFBFBF",
/* pixels */
" ",
" ",
" ",
" ",
" ",
" ",
" ",
" ",
" ",
" ",
" ",
" ",
" ",
" ",
" ",
" ",
" ",
" ",
" ",
" ",
" ",
" ",
" ",
"."
};
