/* XPM */
static char *closeA[] = {
/* columns rows colors chars-per-pixel */
"30 72 219 2 ",
"   c #390808",
".  c #3A0808",
"X  c #590C0C",
"o  c #6D0E0E",
"O  c #700F0F",
"+  c #710F0F",
"@  c #7B1010",
"#  c #7D1011",
"$  c #871212",
"%  c #8D1213",
"&  c #8E1213",
"*  c #B70F10",
"=  c #B80E10",
"-  c #B80F10",
";  c #B80F11",
":  c #AF1717",
">  c #B01012",
",  c #B11113",
"<  c #B11214",
"1  c #B01416",
"2  c #B21617",
"3  c #B31617",
"4  c #B91012",
"5  c #B71718",
"6  c #B81718",
"7  c #B41A1C",
"8  c #B51A1C",
"9  c #B9191A",
"0  c #B9191B",
"q  c #B91A1B",
"w  c #B91A1C",
"e  c #B91B1C",
"r  c #BA1B1C",
"t  c #B83032",
"y  c #B93132",
"u  c #B93233",
"i  c #B93234",
"p  c #B93334",
"a  c #BA383A",
"s  c #BA393A",
"d  c #BA393B",
"f  c #BA3A3B",
"g  c #BA3B3C",
"h  c #BA3B3D",
"j  c #C2191A",
"k  c #C3191A",
"l  c #C4191A",
"z  c #C51A1A",
"x  c #C61A1A",
"c  c #C61A1B",
"v  c #C71A1B",
"b  c #C81A1B",
"n  c #C91A1B",
"m  c #CA1A1B",
"M  c #E71719",
"N  c #EC1518",
"B  c #ED1518",
"V  c #ED1618",
"C  c #ED1619",
"Z  c #ED171A",
"A  c #EE171A",
"S  c #E7181A",
"D  c #E7191B",
"F  c #E8191B",
"G  c #F31D1F",
"H  c #EB1F21",
"J  c #EB1F22",
"K  c #ED1E20",
"L  c #EE1E20",
"P  c #F31D20",
"I  c #F41D20",
"U  c #F51F22",
"Y  c #F61F22",
"T  c #F91F22",
"R  c #C03B3C",
"E  c #C03B3D",
"W  c #C13D3F",
"Q  c #C13E3F",
"!  c #EB2022",
"~  c #EB2123",
"^  c #EC2022",
"/  c #EC2123",
"(  c #EC2224",
")  c #ED2224",
"_  c #F92023",
"`  c #FA2023",
"'  c #FB2023",
"]  c #FC2023",
"[  c #FD2023",
"{  c #E63638",
"}  c #E63739",
"|  c #E7383A",
" . c #E7393A",
".. c #E6393B",
"X. c #E7393B",
"o. c #C13E40",
"O. c #E43E40",
"+. c #E53F40",
"@. c #E53F41",
"#. c #BF494A",
"$. c #BF4A4B",
"%. c #C04A4C",
"&. c #C04B4D",
"*. c #C04C4D",
"=. c #E54041",
"-. c #E54142",
";. c #E94142",
":. c #EA4143",
">. c #EA4244",
",. c #EA4345",
"<. c #EB4345",
"1. c #EA4446",
"2. c #EB4446",
"3. c #E64E50",
"4. c #E64F50",
"5. c #E74F51",
"6. c #E75051",
"7. c #E75152",
"8. c #E75153",
"9. c #C86163",
"0. c #C86263",
"q. c #C86264",
"w. c #C96364",
"e. c #E96667",
"r. c #E96668",
"t. c #E96768",
"y. c #E96769",
"u. c #EA6768",
"i. c #EA6869",
"p. c #BFBFBF",
"a. c #D18080",
"s. c #D18081",
"d. c #D28384",
"f. c #D38485",
"g. c #D38586",
"h. c #D59394",
"j. c #D59494",
"k. c #D59495",
"l. c #D69495",
"z. c #D69595",
"x. c #D89B9C",
"c. c #D99D9E",
"v. c #D99E9E",
"b. c #EC8384",
"n. c #EC8485",
"m. c #EC8688",
"M. c #EC8788",
"N. c #EC8889",
"B. c #EC888A",
"V. c #EC898A",
"C. c #EB9697",
"Z. c #EB9798",
"A. c #EB9898",
"S. c #EB9899",
"D. c #EC9E9F",
"F. c #EC9FA1",
"G. c #EDA0A0",
"H. c #EDA0A1",
"J. c #C7C7C7",
"K. c #D7D7D7",
"L. c #D8D8D8",
"P. c #E4C1C1",
"I. c #E4C1C2",
"U. c #E5C3C3",
"Y. c #E5C3C4",
"T. c #E5C4C4",
"R. c #E6CDCD",
"E. c #E7CDCD",
"W. c #EFCECE",
"Q. c #EFCECF",
"!. c #F0C2C3",
"~. c #F0C3C3",
"^. c #F0C4C4",
"/. c #F0C5C5",
"(. c #F0C5C6",
"). c #F0C6C6",
"_. c #E8D0D0",
"`. c #E8D0D1",
"'. c #E8D1D1",
"]. c #EFD1D1",
"[. c #EFD1D2",
"{. c #EBD9DA",
"}. c #EBDADA",
"|. c #EBDBDB",
" X c #ECDBDC",
".X c #ECDCDC",
"XX c #ECDCDD",
"oX c #ECDDDD",
"OX c #F0D1D2",
"+X c #F0D2D2",
"@X c #F0DADA",
"#X c #F0DADB",
"$X c #F0DBDC",
"%X c #F1DBDC",
"&X c #F1DCDC",
"*X c #F1DCDD",
"=X c #F1DDDD",
"-X c #E9E9E9",
";X c #F0E9E9",
":X c #F2E9E9",
">X c #F2E9EA",
",X c #F0EAEA",
"<X c #F2EAEA",
"1X c #F1EFEF",
"2X c #F1F0F0",
"3X c #F2F0F0",
"4X c #F2F2F2",
"5X c #F2F3F3",
"6X c #F2F4F4",
"7X c #F3F4F4",
"8X c #F2F6F6",
"9X c #F2F7F6",
"0X c #F2F7F7",
"qX c #F3F7F7",
"wX c #F4F4F4",
"eX c #F2F9F9",
"rX c #F3F9F9",
"tX c #F4F9F9",
"yX c #F4FAFA",
/* pixels */
"4X4X4X4X4X4X4X4X4X4X4X4X4X4X4X4X4X4X4X4X4X4X4X4X4X4X4X4X4X4X",
"4X4X4X4X4X4X4X4X4X4X4X4X4X4X4X4X4X4X4X4X4X4X4X4X4X4X4X4X4X4X",
"4X4X4X4X4X4X4X4X4X4X4X4X4X4X4X4X4X4X4X4X4X4X4X4X4X4X4X4X4X4X",
"4X4X4X4X4X4X4X4X4X4X4X4X4X1X4X4X4X4X4X4X4X4X4X4X4X4X4X4X4X4X",
"4X4X4X4X4X4X4X4X4X4X4X4X4X4X4X4X4X4X4X4X4X4X4X4X4X4X4X4X4X4X",
"4X4X4X4X4X4X4X4X4X4X4X4X4X4X4X4X4X4X4X4X4X4X4X4X4X4X4X4X4X4X",
"4X4X4X4X4X4X4X4X4X4X4X4X4X4X4X4X4X4X4X4X4X4X4X4X4X4X4X4X4X4X",
"4X4X4X4X4X4X4X4X4X4X8X8XeXeXeXeXeX0X8X8X4X4X4X4X4X4X4X4X4X4X",
"4X4X4X4X4X4X4X4X4X4X<X=X[.Q.Q.Q.Q.OX=X<X4X4X4X4X4X4X4X4X4X4X",
"4X4X4X4X4X4X4X4X4X1X(.V.8.=.=.=.=.8.V.(.1X4X4X4X4X4X4X4X4X4X",
"4X4X4X4X4X4X4X4X XA.y.1.( Z Z Z N ) <.i.Z.$X4X4X4X4X4X4X4X4X",
"4X4X4X4X4X4X4X=XF.| F P _ ` ` ` ` I L D ..F.$X4X4X4X4X4X4X4X",
"4X4X4X4X4X4X1XC.} ) I _ _ ` ] ] ] ` _ I ~ } C.2X4X4X4X4X4X4X",
"4X4X4X4X8X<X(.i.F I _ ] ` ] ] ] ] ] ] _ G M y.(.<X8X4X4X4X4X",
"4X4X4X4X8X=XV.1.L T ] ] ] ] ] ] ] ] ] ] T L <.m.=X8X4X4X4X4X",
"4X4X4X4XeXOX8./ T T ] ] ] ] ] ] ] ] ] ] ] I H 5.[.8X4X4X4X4X",
"4X4X4X4XeXQ.O.N _ ] ] ] ] ] ] ] ] ] ] ] ] _ N O.Q.eX4X4X4X4X",
"4X4X4X4XeXQ.=.N ] ] ] ] ] ] ] ] ] ] ] ] ] ] Z =.Q.eX4X4X4X4X",
"4X4X4X4XeXQ.-.Z _ ] ] ] ] ] ] ] ] ] ] ] ] ` Z =.Q.eX4X4X4X4X",
"4X4X4X4XeXQ.=.N _ ] ] ] ] ] ] ] ] ] ] ] ] ` Z =.Q.eX4X4X4X4X",
"4X4X4X4XeXOX5./ _ _ ] ] ] ] ] ] ] ] ] ] ` _ ( 8.[.eX4X4X4X4X",
"4X4X4X4XeX=Xn.;.L _ ] ] ] ] ] ] ] ] ] ] _ L <.B.=X8X4X4X4X4X",
"4X4X4X4X8X<X!.e.D I _ ] ] ] ] ] ] ] ] _ P D i.(.<X4X4X4X4X4X",
"4X4X4X4X4X4X3XS.| ) I _ ] ] ] ] ] _ T P ( ..A.2X4X4X4X4X4X4X",
"4X4X4X4X4X4X4X XD.{ F A I ` ` ] _ T L M } G.=X4X4X4X4X4X4X4X",
"4X4X4X4X4X4X4X4X@XC.y.<./ F Z Z N / <.y.C.@X4X4X4X4X4X4X4X4X",
"4X4X4X4X4X4X4X4X4X1X!.n.3.X.=.=.O.8.M.(.4X4X4X4X4X4X4X4X4X4X",
"4X4X4X4X4X4X4X4X4X4X<X=X[.Q.[.Q.Q.OX=X<X4X4X4X4X4X4X4X4X4X4X",
"4X4X4X4X4X4X4X4X4X4X7X8XeXeXeXeXeXeX8X4X4X4X4X4X4X4X4X4X4X4X",
"4X4X4X4X4X4X4X4X4X4X4X4X4X4X4X4X4X4X4X4X4X4X4X4X4X4X4X4X4X4X",
"4X4X3X4X4X4X4X4X4X4X4X4X4X4X4X4X4X4X4X4X4X4X4X4X4X4X4X4X4X4X",
"4X4X4X4X4X4X4X4X4X4X4X4X4X4X4X4X4X4X4X4X4X4X4X4X4X4X4X4X4X4X",
"4X4X4X4XwX4X4X4X4X4X4XwX4X5X4X5X4X4X5X4X4XwXwX4X4X4X4X5X4X4X",
"4XwX4X4X4X4X4X4XwX4X4X5X4X4X5X4X4XwX4X4X4X5X2X4X4X4XwX4X5X4X",
"K.K.K.K.K.K.K.K.K.K.K.K.K.K.K.K.K.K.K.K.K.K.K.K.K.K.K.K.K.K.",
"J.J.J.J.J.J.J.J.J.J.J.J.J.J.J.J.J.J.J.J.J.J.J.J.J.J.J.J.J.J.",
"-X-X-X-X-X-X-X-X-X-X-X-X-X-X-X-X-X-X-X-X-X-X-X-X-X-X-X-X-X-X",
"wXwXwXwXwXwXwXwXwXwXwXwXwXwXwXwXwXwXwXwXwXwXwXwXwXwXwXwXwXwX",
"4X4X4X4X4X4X4X4X4X4X4X4X4X4X4X4X4X4X4X4X4X4X4X4X4X4X4X4X4X4X",
"4X4X4X4X4X4X4X4X4X4X4X4X4X4X4X4X4X4X4X4X4X4X4X4X4X4X4X4X4X4X",
"4X4X4X4X4X4X4X4X4X4X4X4X4X4X4X4X4X4X5X4X4X4X4X4X4X4X4X4X4X4X",
"4X4X4X4X4X4X4X4X4X4X4X4X4X4X4X4X4X4X5X5X4X4X4X4X4X4X4X4X4X4X",
"4X4X4X4X4X4X4X4X4X4X5X5X4X4X4X5X4X4X4X5X4X4X4X4X4X4X4X4X4X4X",
"4X4X4X4X2X4X4X4X5X5X5X0XtXtXtXtXtXtXwX5X4X4X4X4X4X4X4X5X4X4X",
"4X4X4X4X4X4X4X4X5X5X<XXX`.R.R._.E.`.|.;X4X4X4X4X4X4X4X2X4X4X",
"4X4X4X4X4X4X4X4X5X2XY.f.*.f f f h %.f.Y.2X4X4X4X4X4X4X4X4X4X",
"4X4X4X4X4X4X4X5X|.h.q.o.q 4 4 4 - q o.q.h.|.5X4X4X4X4X4X4X4X",
"4X4X4X4X4X5X4X|.c.p 1 5 l c v v c l 6 1 p c.|.4X5X4X4X5X5X2X",
"4X4X4X4X4X4X2Xh.p 7 : 3 v c v v v c 3 : 7 t h.2X5XwX4X4X4X4X",
"4X4X4X4X8X,XY.q.* 1 % @ : v m v c : # % : * q.Y.-XwX4X4X4X4X",
"4X4X4X4XeXXXg.o.5 3 @ X $ : v c : $ X # 3 5 W d.|.tX4X4X4X4X",
"4X4X4X4XyX'.$.q k k : $ X # : : # X $ : j k q $._.tX4X4X4X4X",
"4X4X4X4XtXR.f - v v v : @ o O O o @ : c m v - f R.tX4X4X4X2X",
"4X4X4X4XtXR.f 4 v v v v : O . . O : c v v v - h R.tX4X4X5X5X",
"4X4X4X4XtXR.f 4 v v v v : O . . O : c m m v 4 h R.yX5X4X4X4X",
"4X4X4X4XtXR.f - v m v : @ o O O o # : v m v - h R.yX5X4X4X4X",
"4X4X4X4XtX`.%.0 c c 3 $ X @ : : @ X $ : k k q %.`.0X4X4X4X4X",
"4X4X4X4XwX|.a.R 5 3 # X $ : k v : $ X @ 3 5 o.f.XX8X4X4X4X4X",
"4X4X4X4X8X<XP.9.: 1 % # 3 v v v v : # $ 1 1 q.Y.-XwX4X4X4X4X",
"4X4X4X4X4X4X1Xh.t 7 1 3 k m m v v v 3 : 7 p h.2X4XwX4X4X4X4X",
"4X4X4X4X4X4X4X Xc.p , 6 k c c v v k 6 * t c. X4X4X4X4X4X4X4X",
"4X4X4X4X4X4X4X4X{.h.9.h 0 * 4 4 - q o.q.h. X4X4X4X4X4X4X4X4X",
"4X4X4X4X4X4X4X4XwX1XP.a.%.s f f s %.f.Y.2X4X4X4X4X4X4X4X4X4X",
"4X4X4X4X4X4X4X4X4X4X<X|._.R.R._.R.`.XX<X4X4X4X4X4X4X4X4X4X2X",
"4X4X4X4X4X4X4X4X4X4X8XwXtXtXtXtXtXtXtX5X4X4X4X4X4X4X4X4X4X4X",
"4X4X4X4X4X4X4X4X4X4X4X4X4X4X4X4X5X5X4X4X4X4X4X4X4X4X4X4X4X4X",
"4X4X4X4X4X4X4X4X4X4X4X4X4X4X4X4X4X4X4X4X4X4X4X4X4X4X4X4X4X4X",
"4X4X4X4X4X4X4X4X4X4X4X4X4X4X4X4X4X4X4X4X4X4X4X4X4X4X4X4X4X4X",
"4X4X5X4X4X4X4X4X4X4XwX4X4X4X4X4X4X4XwX4X4X4XwX4X4X4X4X4X4X4X",
"4XwX4X5X4X4X4X4X4XwX4X4X4XwX4XwX4X4X4X4XwX4X4X4X4X4XwXwX4X4X",
"K.L.L.L.L.L.K.K.L.L.L.L.K.L.L.L.L.L.L.L.K.L.L.L.K.L.L.L.K.K.",
"p.p.p.p.p.p.p.p.p.p.p.p.p.p.p.p.p.p.p.p.p.p.p.p.p.p.p.p.p.p."
};
