/* XPM */
static char *closeI[] = {
/* columns rows colors chars-per-pixel */
"30 72 141 2 ",
"   c #390808",
".  c #3A0808",
"X  c #590C0C",
"o  c #6D0E0E",
"O  c #700F0F",
"+  c #710F0F",
"@  c #7B1010",
"#  c #7D1011",
"$  c #871212",
"%  c #8D1213",
"&  c #8E1213",
"*  c #B80F11",
"=  c #B90F11",
"-  c #AF1717",
";  c #B01012",
":  c #B01113",
">  c #B11113",
",  c #B11114",
"<  c #B11214",
"1  c #B01416",
"2  c #B01516",
"3  c #B21617",
"4  c #B31617",
"5  c #B81011",
"6  c #B91011",
"7  c #B91112",
"8  c #BA1112",
"9  c #B71718",
"0  c #B71719",
"q  c #B81718",
"w  c #B41A1C",
"e  c #B51A1C",
"r  c #B9181A",
"t  c #B9191B",
"y  c #B91A1C",
"u  c #BA1A1C",
"i  c #B62E30",
"p  c #B62F31",
"a  c #B72F31",
"s  c #B73032",
"d  c #B83133",
"f  c #B83638",
"g  c #B83738",
"h  c #B83739",
"j  c #B83839",
"k  c #B8393A",
"l  c #BE393A",
"z  c #BE393B",
"x  c #BF3B3C",
"c  c #BF3B3D",
"v  c #BF3C3D",
"b  c #BF3C3E",
"n  c #C2191A",
"m  c #C3191A",
"M  c #C4191A",
"N  c #C51A1A",
"B  c #C61A1A",
"V  c #C61A1B",
"C  c #C71A1B",
"Z  c #C81A1B",
"A  c #C91A1B",
"S  c #CA1A1B",
"D  c #BC4647",
"F  c #BC4748",
"G  c #BD4749",
"H  c #BD484A",
"J  c #BD494A",
"K  c #C45D5E",
"L  c #C45D5F",
"P  c #C45E5F",
"I  c #C45E60",
"U  c #C55E60",
"Y  c #C45F60",
"T  c #C55F60",
"R  c #CB797A",
"E  c #CC7A7B",
"W  c #CC7D7E",
"Q  c #CC7E7F",
"!  c #CC7F80",
"~  c #B2B2B2",
"^  c #BABABA",
"/  c #CE8C8D",
"(  c #CE8D8D",
")  c #CE8D8E",
"_  c #D09494",
"`  c #D09595",
"'  c #D09596",
"]  c #DAB7B7",
"[  c #DBB9B9",
"{  c #DBB9BA",
"}  c #DBBABA",
"|  c #C3C3C3",
" . c #C4C4C4",
".. c #C5C5C5",
"X. c #C6C6C6",
"o. c #C8C8C8",
"O. c #C9C9C9",
"+. c #CACACA",
"@. c #CBCBCB",
"#. c #CECECE",
"$. c #DCC2C2",
"%. c #DCC2C3",
"&. c #DDC5C5",
"*. c #DDC5C6",
"=. c #DDC6C6",
"-. c #DFCECE",
";. c #DFCFCF",
":. c #DFCFD0",
">. c #D0D0D0",
",. c #D2D2D2",
"<. c #D3D3D3",
"1. c #D4D4D4",
"2. c #D5D5D5",
"3. c #D6D6D6",
"4. c #D7D7D7",
"5. c #DFD0D0",
"6. c #D8D8D8",
"7. c #D9D9D9",
"8. c #DCDCDC",
"9. c #DEDEDE",
"0. c #DFDFDF",
"q. c #E0D0D0",
"w. c #E0D0D1",
"e. c #E0D1D1",
"r. c #E3DDDD",
"t. c #E1E1E1",
"y. c #E2E2E2",
"u. c #E4E2E2",
"i. c #E4E3E2",
"p. c #E5E3E2",
"a. c #E5E3E3",
"s. c #E4E4E4",
"d. c #E5E5E5",
"f. c #E5E6E6",
"g. c #E5E7E7",
"h. c #E6E6E6",
"j. c #E7E7E7",
"k. c #E6E9E9",
"l. c #E6EAE9",
"z. c #E7ECEB",
"x. c #E7ECEC",
/* pixels */
"d.d.d.d.d.d.d.d.d.a.d.d.d.d.d.d.d.d.d.d.d.d.d.d.d.d.d.d.d.d.",
"d.d.d.d.d.d.d.d.d.d.d.d.d.d.d.s.d.d.d.d.d.d.d.d.d.d.d.d.d.d.",
"d.d.d.d.d.d.d.d.d.d.d.d.d.d.d.d.d.d.d.d.d.d.d.d.d.d.d.d.d.d.",
"d.d.d.d.d.d.d.d.d.d.d.d.d.d.d.d.d.d.d.d.d.d.d.d.d.d.d.d.d.d.",
"d.d.d.d.d.d.d.d.d.d.d.d.d.d.d.d.d.d.d.d.d.d.d.d.d.d.d.d.s.d.",
"d.d.d.d.d.d.d.d.d.d.d.d.d.d.d.d.d.d.d.d.d.d.d.d.d.d.d.d.d.d.",
"d.d.d.d.d.d.d.d.d.d.d.d.d.d.d.d.d.d.d.d.d.d.d.d.d.d.d.d.d.d.",
"d.d.d.d.d.d.d.d.d.d.d.d.d.d.d.d.k.d.d.d.d.d.d.d.a.d.d.d.d.d.",
"d.d.d.d.d.d.d.d.d.d.y.y.y.9.9.9.9.9.y.s.d.d.d.d.d.d.d.d.d.d.",
"d.d.s.d.d.d.d.d.d.d.9.2.@.| X.X...o.<.9.d.d.d.d.d.d.d.d.d.d.",
"d.d.d.d.d.d.d.d.y.2.#.@.@.@.@.X.o.@.@.#.<.y.d.d.d.d.d.d.d.d.",
"d.d.d.d.d.d.d.y.6.X.X.@.,.2.2.2.<.,.@...X.4.y.d.d.d.d.d.d.d.",
"d.d.d.d.d.d.d.2.X.@.,.2.2.6.6.6.6.4.2.,.o.X.<.s.d.d.d.d.d.d.",
"d.d.d.d.d.d.9.#.| ,.2.6.6.6.6.6.6.6.6.4.,...#.9.s.d.d.d.d.d.",
"d.d.d.d.d.y.<.@.@.<.6.6.6.6.6.6.6.6.6.6.<.@.@.<.y.d.d.d.d.d.",
"d.d.d.d.d.9.@.@.,.2.6.6.6.6.6.6.6.6.6.4.2.,.o.@.9.d.d.d.d.d.",
"d.d.d.d.d.9.X.@.4.4.6.6.6.6.6.6.6.6.6.6.6.4.@...9.d.d.d.d.d.",
"d.d.d.d.d.9.X.@.4.6.6.6.6.6.6.6.6.6.6.6.6.4.@...r.j.d.d.d.d.",
"d.d.d.d.d.9.| @.4.4.6.6.6.6.6.6.6.6.6.6.4.4.o...9.d.d.d.d.d.",
"d.d.s.d.d.9.X.X.4.6.6.6.6.6.6.6.6.6.6.6.4.2.o...9.k.d.d.d.d.",
"d.d.d.d.d.y.@.o.,.4.4.6.6.6.6.6.6.6.6.6.4.<.o.o.9.d.d.d.d.d.",
"d.d.d.d.d.y.,.@.@.<.6.4.6.6.6.6.6.6.6.4.2.@.@.<.y.d.d.d.d.d.",
"d.d.d.d.d.y.9.#...#.4.6.6.6.6.6.6.6.4.4.,...,.8.s.d.d.d.d.d.",
"d.d.d.d.d.d.s.2.X.@.,.4.4.4.4.4.6.4.<.#.o.o.<.s.d.d.d.d.s.d.",
"d.d.d.d.d.d.d.y.2.X.| @.,.2.4.2.4.<.@...X.2.y.d.d.d.d.d.d.d.",
"d.d.d.d.d.d.d.d.y.2.#.@.o.o.@.@.@.o.@.@.<.y.d.d.d.d.d.d.d.d.",
"d.d.d.d.d.d.d.d.d.d.9.,.o.X...X...@.<.9.d.d.d.d.d.d.d.d.d.d.",
"d.d.d.d.d.d.d.d.d.d.y.y.9.9.9.r.9.9.s.s.d.d.d.d.d.d.d.d.d.d.",
"d.d.d.d.d.d.d.d.d.d.d.d.d.d.j.j.d.k.d.d.d.d.d.d.d.d.d.d.d.d.",
"d.d.d.d.d.d.d.d.d.d.d.d.d.d.d.d.d.d.d.d.d.d.d.d.d.d.d.d.d.d.",
"d.d.d.d.d.d.d.d.d.d.d.d.d.d.d.d.d.d.d.d.d.d.d.d.d.d.d.d.d.d.",
"d.d.d.d.d.d.d.d.d.d.d.d.d.d.d.d.d.d.s.d.d.d.d.d.d.d.d.d.d.d.",
"d.d.d.d.d.d.d.d.d.d.d.d.d.d.d.d.d.d.d.d.d.d.d.d.d.d.d.d.d.d.",
"d.d.d.s.d.d.d.d.d.d.d.y.d.d.d.d.d.d.d.s.d.d.d.a.d.d.d.s.d.d.",
"@.@.@.@.@.@.@.@.@.@.@.@.@.@.@.@.@.@.@.@.@.@.@.@.@.@.@.@.@.@.",
"^ ^ ^ ^ ^ ^ ^ ^ ^ ^ ^ ^ ^ ^ ^ ^ ^ ^ ^ ^ ^ ^ ^ ^ ^ ^ ^ ^ ^ ^ ",
"8.9.9.6.9.8.8.9.9.9.8.8.9.9.6.9.6.9.9.6.9.8.8.9.8.9.8.8.9.8.",
"d.d.j.j.j.j.d.d.d.d.d.d.j.k.j.j.j.j.j.j.j.d.d.j.d.d.k.d.d.d.",
"d.d.d.d.d.d.d.d.d.d.d.d.d.d.d.d.d.d.d.d.d.d.d.d.d.d.d.d.d.d.",
"d.d.d.d.d.d.d.d.d.d.d.d.d.d.d.d.d.d.d.d.d.d.d.d.d.d.d.d.d.d.",
"d.d.d.d.d.d.d.d.d.d.d.d.d.d.d.d.d.d.d.d.d.d.d.d.d.d.d.d.d.d.",
"d.d.d.d.d.d.d.d.d.d.d.d.d.d.d.d.d.d.d.d.d.d.d.d.d.d.d.d.d.d.",
"d.d.d.d.d.d.d.d.d.d.d.a.d.d.d.d.d.d.d.d.d.d.d.d.d.d.d.d.d.d.",
"d.d.d.d.d.d.d.d.d.d.d.d.j.x.x.x.x.x.k.d.d.d.d.d.d.d.d.d.d.d.",
"d.d.d.d.d.d.d.d.d.d.r.-.=.$.$.=.$.=.w.r.d.d.d.d.d.s.d.d.d.d.",
"d.d.d.d.d.d.d.d.d.y.} / J j j j h J Q } a.d.d.d.d.d.d.d.d.d.",
"d.d.d.d.d.d.d.d.5./ Y b u 5 5 5 5 y b Y / 5.d.d.d.d.d.d.d.d.",
"d.d.d.d.d.d.d.w.' s ; t m C C C C m 0 < d ' 5.d.d.d.d.d.d.d.",
"d.d.d.d.d.d.d./ a w 1 3 C A Z A A m 3 1 e s / a.d.d.d.d.d.d.",
"d.d.d.d.d.r.} Y ; 1 & # - C A A C - # % ; - K } r.d.d.d.d.d.",
"d.d.d.d.j.w./ b q 1 # X $ - C C - $ X # 1 0 c Q 5.k.d.d.d.d.",
"d.d.d.d.k.$.D y C m - $ X @ - - @ X $ - C m t G =.x.d.d.d.d.",
"d.d.d.d.k.%.j 5 C A C - @ o O O o @ - C A Z 5 j %.x.d.d.d.d.",
"d.d.d.d.x.%.j 5 A A A m - O     O - m A A A 5 k %.x.d.d.d.d.",
"d.d.d.d.x.%.j 5 Z A Z C - O     O - C A A A 5 j %.x.d.d.d.d.",
"d.d.d.d.x.%.j 5 C A C - @ o O O o @ - C A C 5 j %.x.d.d.d.d.",
"d.d.d.d.z.=.D t m m - $ X @ - - @ X $ - m m y J =.k.d.d.d.d.",
"d.d.d.d.k.w.E l 0 3 # X $ - m C - $ X # 3 0 b Q 5.k.d.d.d.d.",
"d.d.d.d.j.r.] P 1 1 % @ - Z Z Z C - # % 1 < T } r.k.d.d.d.d.",
"d.d.d.d.d.d.s./ s w 1 0 C S S Z A C 1 1 w d / d.d.d.s.d.d.d.",
"d.d.d.d.d.d.d.-._ s ; 9 m C C C C m q ; p ' 5.d.d.d.d.d.d.d.",
"d.d.d.d.d.d.d.d.-./ P l 0 5 5 5 5 t c P / 5.d.d.d.d.d.d.d.d.",
"d.d.d.d.d.d.d.d.d.a.] R D j j k g G Q } d.d.d.d.d.d.d.d.d.d.",
"d.d.d.d.d.d.d.d.d.d.r.5.=.$.%.=.%.=.5.r.d.d.d.d.d.d.d.d.d.d.",
"d.d.d.d.d.d.d.d.d.d.k.k.z.x.z.x.x.z.k.j.d.d.d.d.d.d.d.d.d.d.",
"d.d.d.d.d.d.d.d.d.d.d.d.d.d.d.d.d.d.d.d.d.d.d.d.d.d.d.d.d.d.",
"d.d.d.d.d.d.d.d.d.d.d.d.d.d.d.d.d.d.d.d.d.d.d.d.d.d.d.d.d.d.",
"d.d.d.s.d.d.d.d.d.d.d.d.d.d.d.d.d.d.d.d.d.d.d.d.d.d.d.d.d.d.",
"d.j.d.d.d.d.d.d.j.d.d.d.d.d.d.d.d.d.d.d.j.d.j.d.d.j.d.d.d.d.",
"d.d.d.d.d.d.d.d.d.d.d.d.d.j.d.d.d.d.d.d.d.d.d.d.d.d.d.d.d.d.",
"@.@.@.@.@.@.@.@.@.@.@.@.@.@.@.@.@.@.@.@.@.@.@.@.@.@.@.@.@.@.",
"~ ~ ~ ~ ~ ~ ~ ~ ~ ~ ~ ~ ~ ~ ~ ~ ~ ~ ~ ~ ~ ~ ~ ~ ~ ~ ~ ~ ~ ~ "
};
