/* XPM */
static const char *close[] = {
/* columns rows colors chars-per-pixel */
"24 21 26 1 ",
"  c black",
". c #040404",
"X c #1A1A1A",
"o c #1B1B1B",
"O c #1E1E1E",
"+ c #232323",
"@ c #2C2C2C",
"# c gray19",
"$ c #606060",
"% c #616161",
"& c #707070",
"* c #717171",
"= c #727272",
"- c #858585",
"; c #9F9F9F",
": c #ABABAB",
"> c #B0B0B0",
", c #B1B1B1",
"< c #B5B5B5",
"1 c #B6B6B6",
"2 c #C0C0C0",
"3 c #C1C1C1",
"4 c #C2C2C2",
"5 c #C3C3C3",
"6 c #C7C7C7",
"7 c #CECECE",
/* pixels */
"222222222222222222222222",
"222226622222222226622222",
"2222,;;,22222222,;;,2222",
"2222*OO*22222222*OO*2222",
"2222$  @*<6226<*@  $2222",
"2222*X. X-<22<-X .X*2222",
"2222<-X .X*66*X. X-<2222",
"22226<*@  #$$#  @*<62222",
"2222222*X.    .X*2222222",
"2222222<-X    X-<2222222",
"22222227:+    +:72222222",
"2222222<-X    X-<2222222",
"2222222*X.    .X*2222222",
"22226<*@  #$$#  @*<62222",
"2222<-X .X*66*X. X-<2222",
"2222*X. X-<22<-X .X*2222",
"2222$  @*<6226<*@  $2221",
"2222*OO*22222222*OO*2211",
"2222,:;,22222222,::,2222",
"222226622222222226622222",
"222222221122222222222222"
};
