/* XPM */
static char *closeO[] = {
/* columns rows colors chars-per-pixel */
"30 72 227 2 ",
"   c #390808",
".  c #3A0808",
"X  c #480A0A",
"o  c #590C0C",
"O  c #6D0E0E",
"+  c #700F0F",
"@  c #710F0F",
"#  c #6F0E10",
"$  c #7B1010",
"%  c #7D1011",
"&  c #871212",
"*  c #881213",
"=  c #8D1213",
"-  c #8E1213",
";  c #8D1214",
":  c #9A1416",
">  c #9C1416",
",  c #B70F10",
"<  c #B80E10",
"1  c #B80F10",
"2  c #B80F11",
"3  c #AF1717",
"4  c #A91618",
"5  c #B01012",
"6  c #B11113",
"7  c #B11214",
"8  c #B01416",
"9  c #B21617",
"0  c #B31617",
"q  c #B91012",
"w  c #B21619",
"e  c #B71718",
"r  c #B81718",
"t  c #B41A1C",
"y  c #B51A1C",
"u  c #B9191A",
"i  c #B9191B",
"p  c #B91A1B",
"a  c #B91A1C",
"s  c #B91B1C",
"d  c #BA1B1C",
"f  c #B83032",
"g  c #B93132",
"h  c #B93233",
"j  c #B93234",
"k  c #B93334",
"l  c #BA383A",
"z  c #BA393A",
"x  c #BA393B",
"c  c #BA3A3B",
"v  c #BA3B3C",
"b  c #BA3B3D",
"n  c #C2191A",
"m  c #C3191A",
"M  c #C4191A",
"N  c #C51A1A",
"B  c #C61A1A",
"V  c #C61A1B",
"C  c #C71A1B",
"Z  c #C81A1B",
"A  c #C91A1B",
"S  c #CA1A1B",
"D  c #DF1A1D",
"F  c #DB1C1E",
"G  c #E41719",
"H  c #EC1518",
"J  c #ED1518",
"K  c #ED1618",
"L  c #ED1619",
"P  c #ED171A",
"I  c #EE171A",
"U  c #E4181A",
"Y  c #E4191B",
"T  c #E01A1D",
"R  c #E11C1F",
"E  c #E91D20",
"W  c #EA1D20",
"Q  c #EB1F22",
"!  c #EC1F22",
"~  c #F51F22",
"^  c #F61F22",
"/  c #F71F22",
"(  c #C03B3C",
")  c #C03B3D",
"_  c #C13D3F",
"`  c #C13E3F",
"'  c #E52023",
"]  c #E52123",
"[  c #EC2022",
"{  c #EC2023",
"}  c #EC2123",
"|  c #EC2124",
" . c #F82022",
".. c #FA2023",
"X. c #FB2023",
"o. c #FC2023",
"O. c #FD2023",
"+. c #FE2023",
"@. c #E53638",
"#. c #E43739",
"$. c #E53739",
"%. c #E5383A",
"&. c #E5393B",
"*. c #C13E40",
"=. c #E43E40",
"-. c #E53F40",
";. c #E53F41",
":. c #BF494A",
">. c #BF4A4B",
",. c #C04A4C",
"<. c #C04B4D",
"1. c #C04C4D",
"2. c #E54041",
"3. c #E54142",
"4. c #EA4142",
"5. c #EB4143",
"6. c #EB4245",
"7. c #EB4345",
"8. c #EC4345",
"9. c #EB4446",
"0. c #EC4446",
"q. c #E64E50",
"w. c #E64F50",
"e. c #E74F51",
"r. c #E75051",
"t. c #E75152",
"y. c #E75153",
"u. c #C86163",
"i. c #C86263",
"p. c #C86264",
"a. c #C96364",
"s. c #EA6667",
"d. c #EA6768",
"f. c #EA6769",
"g. c #EA6869",
"h. c #EB6869",
"j. c #BFBFBF",
"k. c #D18080",
"l. c #D18081",
"z. c #D28384",
"x. c #D38485",
"c. c #D38586",
"v. c #D59394",
"b. c #D59494",
"n. c #D59495",
"m. c #D69495",
"M. c #D69595",
"N. c #D89B9C",
"B. c #D99D9E",
"V. c #D99E9E",
"C. c #EC8384",
"Z. c #EC8485",
"A. c #EC8688",
"S. c #EC8788",
"D. c #EC8889",
"F. c #EC888A",
"G. c #EC898A",
"H. c #EB9797",
"J. c #EB9798",
"K. c #EC9798",
"L. c #EC9898",
"P. c #EC9899",
"I. c #EC9E9F",
"U. c #EC9FA1",
"Y. c #EDA0A0",
"T. c #EDA0A1",
"R. c #C7C7C7",
"E. c #D7D7D7",
"W. c #D8D8D8",
"Q. c #E4C1C1",
"!. c #E4C1C2",
"~. c #E5C3C3",
"^. c #E5C3C4",
"/. c #E5C4C4",
"(. c #E6CDCD",
"). c #E7CDCD",
"_. c #EFCECE",
"`. c #EFCECF",
"'. c #F0C2C3",
"]. c #F0C3C3",
"[. c #F0C4C4",
"{. c #F0C5C5",
"}. c #F0C5C6",
"|. c #F0C6C6",
" X c #E8D0D0",
".X c #E8D0D1",
"XX c #E8D1D1",
"oX c #EFD1D1",
"OX c #EFD1D2",
"+X c #EBD9DA",
"@X c #EBDADA",
"#X c #EBDBDB",
"$X c #ECDBDC",
"%X c #ECDCDC",
"&X c #ECDCDD",
"*X c #ECDDDD",
"=X c #F0D1D2",
"-X c #F0D2D2",
";X c #F0DADA",
":X c #F0DADB",
">X c #F0DBDC",
",X c #F1DBDC",
"<X c #F1DCDC",
"1X c #F1DCDD",
"2X c #F1DDDD",
"3X c #E9E9E9",
"4X c #F0E9E9",
"5X c #F2E9E9",
"6X c #F2E9EA",
"7X c #F0EAEA",
"8X c #F2EAEA",
"9X c #F1EFEF",
"0X c #F1F0F0",
"qX c #F2F0F0",
"wX c #F2F2F2",
"eX c #F2F3F3",
"rX c #F2F4F4",
"tX c #F3F4F4",
"yX c #F2F6F6",
"uX c #F2F7F6",
"iX c #F2F7F7",
"pX c #F3F7F7",
"aX c #F4F4F4",
"sX c #F2F9F9",
"dX c #F3F9F9",
"fX c #F4F9F9",
"gX c #F4FAFA",
/* pixels */
"wXwXwXwXwXwXwXwXwXwXwXwXwXwXwXwXwXwXwXwXwXwXwXwXwXwXwXwXwXwX",
"wXwXwXwXwXwXwXwXwXwXwXwXwXwXwXwXwXwXwXwXwXwXwXwXwXwXwXwXwXwX",
"wXwXwXwXwXwXwXwXwXwXwXwXwXwXwXwXwXwXwXwXwXwXwX0XwXwXwXwX0XwX",
"wXwXwXwXwXwXwXwXwXwXwXwXwX9XwXwXwXwXwXwXwXwXwXwXwXwXwXwXwXwX",
"wXwXwXwXwXwXwXwXwXwXwXwXwXwXwXwXwXwXwXwXwXwX0XwXwXwXwXwXwXwX",
"wXwXwXwXwXwXwXwXwXwXwXwXwXwXwXwXwXwXwXwXwXwXwXwXwXwXwXwXwXwX",
"wXwXwXwXwXwXwXwXwXwXwXwXwXwXwXwXtXwXwXwXwXwXwXwXwXwXwXwXwXwX",
"wXwXwXwXwXwXwXwXwXwXyXyXsXsXsXsXdXpXpXtXwXwXwXwXwXwXwXwXwXwX",
"wXwXwXwXwXwXwXwXwXwX8X2X-X`.`.`.`.OX2X8XtXwXwXwXwXwXwXwXwXwX",
"wXwXwXwXwXwXwXwXwX9X|.G.y.2.2.2.=.y.S.{.9XwXwXwXwXwXwXwXwXwX",
"wXwXwXwXwXwXwXwX$XK.h.0.| P I I P ! 6.f.J.,XtXtXwXwXwXwXwXwX",
"wXwXwXwXwXwXwX2XU.$.U W ^ X.X.o./ ^ W T $.U.$XwXwXwXwXwXwXwX",
"wXwXwXwXwXwXqXH.$.] D R ^ o.o.o.o.^ E D E $.K.qXwXwXwXwXwXwX",
"wXwXwXwXyX8X|.g.G D w > F  .o.o.X.F : 3 D G h.|.8XtXwXwXwXwX",
"wXwXwXwXyX2XG.9.W R > # 4 F .. .F 4 # : T W 9.S.*XyXwXwXwXwX",
"wXwXwXwXsXOXt.} ^ ^ F 4 # : F F : # 4 F ^ ^ W w.-XsXwXwXwXwX",
"wXwXwXwXsX_.=.P ..o...F : & ; ; * : F  .o...P =._.sXwXwXwXwX",
"wXwXwXwXsX_.3.P ..o.o...F ; X X ; F ..o.o.X.P 2.OXsXwXwXwXwX",
"wXwXwXwXsX_.3.P ..o.o. .F ; X X ; F  .o.o...P 2._.sXwXwXwXwX",
"wXwXwXwXsXOX&.P ..o. .F : * ; ; * : F  .o...P 2._.sXwXwXwXwX",
"wXwXwXwXsX-Xt.}  .^ F 4 # : F F : # 4 F  .^ | t.OXsXwXwXwXwX",
"wXwXwXwXiX*XZ.4.W R : # 4 F  ...F 4 # > R W 9.G.2XyXwXwXwXwX",
"wXwXwXwXyX8X'.s.U D w : F  .o.o./ F : w D U g.|.8XwXwXwXwXwX",
"wXwXwXwXwXwXqXL.&.] T R  .o.o...o.^ R D ] &.P.0XwXwXwXwXwXwX",
"wXwXwXwXwXwXwX$XI.@.G P ~ ......o.^ W G $.U.,XwXwXwXwXwXwXwX",
"wXwXwXwXwXwXwXwX;XH.f.9.[ H I I P W 9.h.H.;XwXwXwXwXwXwXwXwX",
"wXwXwXwXwXwXwXwXwXqX].C.w.=.3.3.=.r.S.|.wXwXwXwXwXwXwXwXwXwX",
"wXwXwXwXwXwXwXwXwXwX8X2XOX_._._.`.-X2X8XwXwXwXwXwXwXwXwXwXwX",
"wXwXwXwXwXwXwXwXwXwXrXyXsXsXsXsXfXsXyXtXwXwXwXwXwXwXwXwXwXwX",
"wXwXwXwXwXwXwXwXwXwXwXwXwXwXwXwXwXwXwXwXwXwXwXwXwXwXwXwXwXwX",
"wXwXqXwXwXwXwXwXwXwXwXwXwXwXwXwXwXwXwXwXwXwXwXwXwXwXwXwXwXwX",
"wXwXwXwXwXwXwXwXwXwXwXwXwXwXwXwXwXwXwXwXwXwXwXwXwXwXwXwXwXwX",
"eXeXeXeXeXeXeXeXeXeXeXeXrXwXwXwXeXeXeXeXeXeXeXeXeXeXwXwXwXwX",
"qXeXeXeXqXeXeXeXeXeXeXwXwXwXwXwXeXeXeXqXeXeXeXeXeXeXeXwXwXwX",
"E.E.E.E.E.E.E.E.E.E.E.E.E.E.E.E.E.E.E.E.E.E.E.E.E.E.E.E.W.E.",
"R.R.R.R.R.R.R.R.R.R.R.R.R.R.R.R.R.R.R.R.R.R.R.R.R.R.R.R.R.R.",
"3X3X3X3X3X3X3X3X3X3X3X3X3X3X3X3X4X3X3X3X3X3X3X3X3X3X3X3X3X3X",
"aXaXaXaXeXeXaXaXeXaXaXaXaXaXaXaXeXeXaXeXeXeXaXaXaXaXaXaXaXwX",
"eXeXeXeXwXwXeXeXeXeXeXeXwXwXwXwXeXeXeXeXwXwXwXwXwXwXeXeXwXwX",
"qXeXqXeXeXeXqXeXqXeXqXeXwXwXwXwXqXeXqXeXwXwXwXwXwXwXwXwXwXwX",
"eXeXqXeXeXeXeXeXwXwXwXwXwXwXwXwXeXeXwXwXwXwXwXwXwXwXwXwXwXwX",
"qXeXeXeXeXqXeXqXwXwXwXwXwXwXwXwXqXeXwXwXwXwXwXwXwXwXwXwXwXwX",
"eXeXeXeXwXwXeXeXwXwXwXwXwXwXwXwXeXeXeXwXwXwXwXwXwXwXwXwXwXwX",
"eXqXeXqXwXwXwXqXwXwXyXiXfXfXfXfXfXfXaXaXwXwXwXwXwXwXwXwXwXwX",
"wXwXwXwXwXwXwXwXwXrX8X*XXX(.(.(.(.XX*X8XwXwXwXwXwXwXwXwXwXwX",
"wXwXwXwXwXwXwXwXwXqX~.x.1.v v v v >.x.~.9XwXwXwXwXwXwXwXwXwX",
"wXwXwXwXwXwXwXeX$XM.a._ s q q q q p _ i.M.$XwXwXwXwXwXwXwXwX",
"wXwXwXwXwXwXwX$XB.k 5 p n M V S M n p 7 g B.$XwXwXwXwXwXwXwX",
"wXwXwXwXwXwXqXb.g y 8 0 M S S S S M 3 8 a g M.9XwXwXwXwXwXwX",
"wXwXwXwXyX8X~.a.5 8 - % 3 M S S M 3 % - 8 5 i.~.8XrXwXwXwXwX",
"wXwXwXwXaX*Xk.,.r 8 % o & 3 M V 3 * o % 3 r _ z.*XyXwXwXwXwX",
"wXwXwXwXfX).,.p n M 3 & o % 3 3 % o * 3 M M p ,. XfXwXwXwXwX",
"wXwXwXwXfX(.l q V S V 3 % O + + O $ 3 M S M 1 l (.fXwXwXwXwX",
"wXwXwXwXfX(.v q S V S N 3 + . . + 3 M S S S q v (.fXwXwXwXwX",
"wXqXwXwXfX(.v q V S S V 3 + . . + 3 M S S S q v (.fXrXwXwXwX",
"wXwXwXwXfX(.l q V S V 3 $ O + + O $ w M S M 1 v (.fXwXwXwXwX",
"qXrXqXrXgX X:.p n N 3 * o % 3 3 $ o & 3 M n p 1.XXpXwXwXwXwX",
"rXqXrXqXiX#Xk.( y 3 % o * 3 V M 3 * o % 8 r *.x.*XyXwXwXwXwX",
"wXwXqXrXrX7X!.i.5 8 - % 3 V S S M 8 % ; 8 7 p.~.3XaXwXwXwXwX",
"qXwXrXqXrXrXqXb.g a 8 3 n S S S S M w 4 y k M.wXwXwXwXwXwXwX",
"rXrXqXrXqXrXrX+XN.g 5 r n M S S C m r , g V.$XwXwXwXwXwXwXwX",
"rXqXrXqXwXwXqXrX$Xm.a.( p , q 2 1 p *.p.n.$XwXwXwXwXwXwXwXwX",
"qXrXqXrXrXwXrXqXwXqX!.k.:.l v v z ,.x.^.0XtXwXwXwXwXwXwXwXwX",
"rXqXrXqXqXrXqXrXqXaX3X#X X).).).(..X$X8XwXwXwXwXwXwXwXwXwXwX",
"qXrXwXwXwXqXrXwXrXwXaXfXfXfXfXfXfXfXiXrXwXwXwXrXwXwXwXwXwXqX",
"wXwXrXqXwXwXwXwXqXwXwXwXrXqXwXwXrXwXwXwXwXwXwXqXwXwXrXqXwXwX",
"wXrXwXwXwXwXwXwXwXwXrXqXqXrXqXwXwXwXwXqXrXwXrXqXwXwXwXwXwXwX",
"wXqXwXwXwXwXrXqXwXrXqXrXrXqXrXwXwXwXwXrXqXrXqXrXqXrXwXwXwXrX",
"rXwXqXrXrXwXrXqXrXqXrXqXwXrXwXwXwXrXeXqXaXwXrXqXwXaXwXwXwXrX",
"qXwXrXrXqXrXqXrXaXqXeXeXeXqXrXrXrXqXeXwXqXrXwXaXwXwXwXwXwXwX",
"W.W.W.W.W.W.W.W.W.W.W.W.W.W.W.W.W.W.W.W.W.W.W.W.W.W.W.W.W.W.",
"j.j.j.j.j.j.j.j.j.j.j.j.j.j.j.j.j.j.j.j.j.j.j.j.j.j.j.j.j.j."
};
