/* XPM */
static char *dframeITL[] = {
/* width height ncolors chars_per_pixel */
"15 26 9 1",
/* colors */
"  c #B5B5B5",
". c #B6B6B6",
"X c #DFDFDF",
"o c #CECECE",
"O c #E2E2E2",
"+ c #D3D3D3",
"@ c #E5E5E5",
"# c #B2B2B2",
"$ c None",
/* pixels */
"$$$$$$.########",
"$$$$# +XOOOOOOO",
"$$$#o@@@@@@@@@@",
"$$#o@@@@@@@@@@@",
"$$ @@@@@@@@@@@@",
"$.+@@@@@@@@@@@@",
"$#X@@@@@@@@@@@@",
"$#O@@@@@@@@@@@@",
"$#O@@@@@@@@@@@@",
"$#O@@@@@@@@@@@@",
"$#O@@@@@@@@@@@@",
"$#O@@@@@@@@@@@@",
"$#O@@@@@@@@@@@@",
"$#O@@@@@@@@@@@@",
"$#O@@@@@@@@@@@@",
"$#O@@@@@@@@@@@@",
"$#O@@@@@@@@@@@@",
"$#O@@@@@@@@@@@@",
"$#O@@@@@@@@@@@@",
"$#O@@@@@@@@@@@@",
"$#O@@@@@@@@@@@@",
"$#O@@@@@@@@@@@@",
"$#O@@@@@@@@@@@@",
"$#O@@@@@@@@@@@@",
"$#O@@@@@@@@@@@@",
"$##############"
};
