/* XPM */
static char *dframeAR[] = {
/* width height ncolors chars_per_pixel */
"2 1 2 1",
/* colors */
"  c #BFBFBF",
". c None",
/* pixels */
" ."
};
