/* XPM */
static char *maximizeI[] = {
/* columns rows colors chars-per-pixel */
"30 72 140 2 ",
"   c #0F4712",
".  c #115415",
"X  c #145F18",
"o  c #146018",
"O  c #156419",
"+  c #156719",
"@  c #166719",
"#  c #15671A",
"$  c #16671A",
"%  c #127617",
"&  c #127B17",
"*  c #18751D",
"=  c #19751D",
"-  c #127B18",
";  c #137B18",
":  c #147D19",
">  c #157D1A",
",  c #167D1B",
"<  c #197A1E",
"1  c #1A7A1E",
"2  c #1A7C1E",
"3  c #1B8220",
"4  c #1C8220",
"5  c #1B8520",
"6  c #1C8421",
"7  c #1C8521",
"8  c #1C8621",
"9  c #1D8422",
"0  c #1D8522",
"q  c #1E8523",
"w  c #1F8523",
"e  c #1B8A20",
"r  c #1E8D23",
"t  c #1E9023",
"y  c #1F9124",
"u  c #1F9224",
"i  c #1F9424",
"p  c #318836",
"a  c #328936",
"s  c #338A37",
"d  c #338A38",
"f  c #348A38",
"g  c #398B3D",
"h  c #398B3E",
"j  c #3A8B3E",
"k  c #3A8C3E",
"l  c #3B8C3F",
"z  c #3B9140",
"x  c #3C9140",
"c  c #3E9142",
"v  c #3E9242",
"b  c #3F9242",
"n  c #3F9243",
"m  c #3F9343",
"M  c #48934C",
"N  c #49944D",
"B  c #4A954D",
"V  c #4B954E",
"C  c #4B954F",
"Z  c #5FA062",
"A  c #5FA063",
"S  c #60A063",
"D  c #60A163",
"F  c #60A164",
"G  c #61A164",
"H  c #7BAF7E",
"J  c #7CAF7F",
"K  c #7FB181",
"L  c #7FB281",
"P  c #7FB282",
"I  c #80B282",
"U  c #80B283",
"Y  c #8DB68F",
"T  c #8EB790",
"R  c #8FB791",
"E  c #8EB891",
"W  c #95BC97",
"Q  c #96BC98",
"!  c #96BC99",
"~  c #97BC99",
"^  c #B2B2B2",
"/  c #BABABA",
"(  c #B7CEB9",
")  c #B8CEB9",
"_  c #BACFBB",
"`  c #B9D0BB",
"'  c #BAD0BB",
"]  c #BAD0BC",
"[  c #BBD0BC",
"{  c #C3C3C3",
"}  c #C4C4C4",
"|  c #C5C5C5",
" . c #C6C6C6",
".. c #C8C8C8",
"X. c #C9C9C9",
"o. c #CACACA",
"O. c #CBCBCB",
"+. c #CECECE",
"@. c #C2D3C3",
"#. c #C3D3C3",
"$. c #C3D3C4",
"%. c #C5D4C6",
"&. c #C6D5C6",
"*. c #C6D5C7",
"=. c #CED9CF",
"-. c #CFDAD0",
";. c #D0D0D0",
":. c #D2D2D2",
">. c #D3D3D3",
",. c #D4D4D4",
"<. c #D5D5D5",
"1. c #D6D6D6",
"2. c #D7D7D7",
"3. c #D0DAD0",
"4. c #D0DAD1",
"5. c #D1DBD1",
"6. c #D1DBD2",
"7. c #D8D8D8",
"8. c #D9D9D9",
"9. c #DCDCDC",
"0. c #DEDEDE",
"q. c #DFDFDF",
"w. c #DDE1DD",
"e. c #DDE1DE",
"r. c #E1E1E1",
"t. c #E2E2E2",
"y. c #E2E4E2",
"u. c #E2E4E3",
"i. c #E3E4E3",
"p. c #E4E4E4",
"a. c #E5E5E5",
"s. c #E6E5E5",
"d. c #E6E5E6",
"f. c #E6E6E6",
"g. c #E7E6E7",
"h. c #E7E7E7",
"j. c #E9E7E9",
"k. c #EBE8EB",
"l. c #ECE8EB",
"z. c #ECE9EC",
/* pixels */
"a.a.a.a.a.a.a.a.a.i.a.a.a.a.a.a.a.a.a.a.a.a.a.a.a.a.a.a.a.a.",
"a.a.a.a.a.a.a.a.a.a.a.a.a.a.a.a.a.a.a.a.a.a.a.a.a.a.a.a.a.a.",
"a.a.a.a.a.a.a.a.a.a.a.a.a.a.a.a.a.a.a.a.a.a.a.a.a.a.a.a.a.a.",
"a.a.a.a.a.a.a.a.a.a.a.a.a.a.a.a.a.a.a.a.a.a.a.a.a.a.a.a.a.a.",
"a.a.a.a.a.a.a.a.a.a.a.a.a.a.a.a.a.a.a.a.a.a.a.a.a.a.a.a.a.a.",
"a.a.a.a.a.a.a.a.a.a.a.a.a.a.a.a.a.a.a.a.a.a.a.a.a.a.a.a.a.a.",
"a.a.a.a.a.a.a.a.a.a.a.a.a.a.a.a.a.a.a.a.a.a.a.a.a.a.a.a.a.a.",
"a.a.a.a.a.a.a.a.a.a.a.a.a.a.a.a.a.a.a.a.a.a.a.a.a.a.a.a.a.a.",
"a.a.a.a.a.a.a.a.a.a.a.t.0.0.0.0.0.0.t.p.a.a.a.a.a.a.a.a.a.a.",
"a.a.a.a.a.a.a.a.a.a.0.<.o. . . . ...,.0.p.a.a.a.a.a.a.a.a.a.",
"a.a.a.a.a.a.a.a.t.<.+.o.o.o. .o.o.o.o.+.<.t.a.a.a.a.a.a.a.a.",
"a.a.a.a.a.a.a.t.7. . .o.:.<.<.<.<.:.o.{  .<.t.a.a.a.a.a.a.a.",
"a.a.a.a.a.a.a.<. .o.:.<.<.7.7.7.7.7.<.:.o. .,.a.a.a.a.a.a.a.",
"a.a.a.a.a.a.0.+.{ :.<.7.7.7.7.7.7.7.7.7.+.{ +.0.p.a.a.a.a.a.",
"a.a.a.a.a.t.<.o.o.<.7.7.7.7.7.7.7.7.7.7.<.o.o.,.t.a.a.a.a.a.",
"a.a.a.a.a.0.o.o.>.<.7.7.7.7.7.7.7.7.7.7.<.:.....t.a.a.a.a.a.",
"a.a.a.a.a.0. .o.<.7.7.7.7.7.7.7.7.7.7.7.7.<.o. .q.a.a.a.a.a.",
"a.a.a.a.a.0. .o.7.7.7.7.7.7.7.7.7.7.7.7.7.7.o. .e.h.a.a.a.a.",
"a.a.a.p.a.0. .o.7.7.7.7.7.7.7.7.7.7.7.7.7.<.o.{ 0.a.a.a.a.a.",
"a.a.a.a.a.0. . .<.7.7.7.7.7.7.7.7.7.7.7.7.<... .0.a.a.a.a.a.",
"a.a.a.a.a.t.o.o.:.2.7.7.7.7.7.7.7.7.7.7.<.:.o.o.t.a.a.a.a.a.",
"a.a.a.a.a.t.:.o.o.<.7.7.7.7.7.7.7.7.7.7.<.o.o.<.t.a.a.a.a.p.",
"a.a.a.a.a.t.0.+.{ +.2.7.7.7.7.7.7.7.7.2.;.{ +.0.t.a.a.a.a.a.",
"a.a.a.a.a.a.a.<. .o.:.<.7.7.7.7.7.7.<.+.o. .<.a.a.a.a.a.a.a.",
"a.a.a.a.a.a.a.t.<. .{ o.:.<.<.<.<.:.o. . .<.t.a.a.a.a.a.a.a.",
"a.a.a.a.a.a.a.a.t.<.+.o.o. .o.o.o.o.o.+.<.t.a.a.a.a.a.a.a.a.",
"a.a.a.a.p.a.a.a.a.a.0.>.o. . . . .o.<.0.a.a.a.a.a.a.a.a.a.a.",
"a.a.a.a.a.a.a.a.a.a.i.t.0.0.0.t.0.0.t.i.a.a.a.a.a.a.a.a.a.a.",
"a.a.a.a.a.a.a.a.a.a.a.a.a.a.h.a.a.a.a.a.a.a.a.a.a.a.a.a.a.a.",
"a.a.a.a.a.a.a.a.a.a.a.a.a.a.a.a.a.a.a.a.a.a.a.a.a.a.a.a.a.a.",
"a.a.a.a.a.a.a.a.a.a.a.a.a.a.a.a.a.a.a.a.a.a.a.a.a.a.a.a.a.a.",
"a.a.a.a.a.a.a.a.a.a.a.a.a.a.a.a.a.a.a.a.a.a.a.a.a.a.a.a.a.a.",
"a.a.a.a.a.a.a.a.a.a.a.a.a.a.a.a.h.a.a.a.a.a.a.a.a.a.a.a.a.a.",
"a.a.a.a.a.a.a.a.a.a.a.a.a.a.a.a.a.a.a.a.a.a.a.a.a.a.a.a.a.a.",
"O.o.o.o.o.o.o.o.O.O.o.o.o.o.o.o.o.o.o.o.o.o.o.o.O.o.o.o.o.o.",
"/ / / / / / / / / / / / / / / / / / / / / / / / / / / / / / ",
"0.0.7.0.0.9.9.0.0.0.9.9.0.9.9.0.0.0.9.9.0.9.9.0.0.0.9.9.0.9.",
"a.j.h.a.h.h.a.h.a.h.a.a.h.a.a.h.a.h.h.a.h.a.a.h.a.h.h.a.h.a.",
"a.a.a.a.a.a.a.a.a.a.a.a.a.a.a.a.a.a.a.a.a.a.a.a.a.a.a.a.a.a.",
"a.a.a.a.a.a.a.a.a.a.a.a.a.a.a.a.a.a.a.a.a.a.a.a.a.a.a.a.a.a.",
"a.a.a.a.a.a.a.a.a.a.a.a.a.a.a.a.a.a.a.a.a.a.a.a.a.a.a.a.a.a.",
"a.a.a.a.a.a.a.a.a.a.a.a.a.a.a.a.a.a.a.a.a.a.a.a.a.a.a.a.a.i.",
"a.a.a.a.a.a.a.a.a.a.a.a.a.a.a.a.a.a.a.a.a.a.a.a.a.a.a.a.a.a.",
"a.a.a.a.a.a.a.a.a.a.j.j.j.z.z.z.l.l.j.h.a.a.a.a.a.a.a.a.a.a.",
"a.a.a.a.a.a.a.a.a.a.e.6.*.$.$.$.$.*.5.e.a.a.a.a.a.a.a.a.a.a.",
"a.a.a.a.a.a.a.a.a.t._ U V j z j l B P ' t.a.a.a.a.a.a.a.a.a.",
"a.a.a.a.a.a.a.a.6.T G n q ; % % ; 0 v D Y 6.a.a.a.a.a.a.a.a.",
"a.a.a.a.a.a.a.6.! d , 0 r 4 * * 8 r 8 : f Q 6.a.a.a.a.a.a.a.",
"a.a.a.a.a.a.a.T s 0 e y y 2 @ O < u y e 0 s Y i.a.a.a.a.a.a.",
"a.a.a.a.a.e._ G : e y i i < X X < i i y e : D ' e.h.a.a.a.a.",
"a.a.a.a.j.6.U v 0 y i i i < X o < i i i y 0 v J 6.j.a.a.a.a.",
"a.a.a.a.z.*.B 0 r u i i i < o o < i i u y r 0 M *.l.a.a.a.a.",
"a.a.a.a.k.@.j & 3 < < < < @ . . @ * < < < 3 & j @.l.a.a.a.a.",
"a.a.a.a.z.@.l % * @ o o o .     . O O X O * % l $.z.a.a.a.a.",
"a.p.a.a.z.$.l % * @ o o o .     . X O X O * % z $.z.a.a.a.a.",
"a.a.a.a.z.@.j & 3 < < < < @ . . @ < < < < 3 ; l $.l.a.a.a.a.",
"a.a.a.a.k.*.M 0 r y i i i < O O < i i i y r 0 C *.j.a.a.a.a.",
"a.a.a.a.j.6.H v 5 y i u i < X X < i i i y 8 v U 6.j.a.a.a.a.",
"a.a.a.a.a.e.) A : e u u u < X X < i i y e : G ' e.a.a.a.a.a.",
"a.a.a.a.a.a.p.T d 0 e y u < O O 2 y y e 0 f E i.a.a.a.a.a.a.",
"a.a.a.a.a.a.a.-.W d : 8 r 3 * * 4 r 0 : p ! 6.a.a.a.a.a.a.a.",
"a.a.a.a.a.a.a.a.=.T A z 0 & % % & 0 v D T 6.a.a.a.a.a.a.a.a.",
"a.a.a.a.a.a.a.a.a.t.) H M j j z j B U _ t.a.a.a.a.a.a.a.a.a.",
"a.a.a.a.a.a.a.a.a.a.0.6.$.$.$.$.$.*.6.e.a.a.a.a.a.a.a.a.a.a.",
"a.a.a.a.a.a.a.a.a.a.j.k.k.k.k.l.l.l.k.a.a.a.a.a.a.a.a.a.a.a.",
"a.a.a.a.a.a.a.a.a.a.a.a.a.a.a.a.a.a.a.a.a.a.a.a.a.a.a.a.a.a.",
"a.a.a.a.a.a.a.a.a.a.a.a.a.a.a.a.a.a.a.a.a.a.a.a.a.a.a.a.a.a.",
"a.a.a.a.a.p.a.a.a.a.a.a.a.a.a.a.a.a.a.a.a.a.a.a.a.a.a.a.a.a.",
"a.a.a.a.a.a.a.a.a.a.a.a.a.a.a.a.a.a.a.a.a.a.a.a.a.a.h.a.a.a.",
"a.a.a.a.a.a.a.a.a.a.a.h.h.a.a.a.a.a.a.a.h.a.a.a.a.a.a.a.a.a.",
"+.o.O.O.O.O.O.O.O.O.O.O.O.O.O.O.o.O.O.O.O.O.O.O.+.o.O.O.O.O.",
"^ ^ ^ ^ ^ ^ ^ ^ ^ ^ ^ ^ ^ ^ ^ ^ ^ ^ ^ ^ ^ ^ ^ ^ ^ ^ ^ ^ ^ ^ "
};
