/* XPM */
static const char *maximize[] = {
/* columns rows colors chars-per-pixel */
"24 21 25 1 ",
"  c black",
". c #0A0A0A",
"X c #1C1C1C",
"o c #212121",
"O c #222222",
"+ c #282828",
"@ c #3F3F3F",
"# c #4E4E4E",
"$ c #5F5F5F",
"% c #606060",
"& c #626262",
"* c #A8A8A8",
"= c #A9A9A9",
"- c #AAAAAA",
"; c #ABABAB",
": c #B0B0B0",
"> c #C6C6C6",
", c #CCCCCC",
"< c #CDCDCD",
"1 c #CECECE",
"2 c #CFCFCF",
"3 c #D2D2D2",
"4 c #D3D3D3",
"5 c #D4D4D4",
"6 c #D5D5D5",
/* pixels */
",,,,,,,,,,,,,,,,,,,,,,,,",
",,,333333333333333333,,,",
",,>:================:>,,",
",3:@XooooooooooooooX@:3,",
",3=o                o=3,",
",3=o.oooooooooooooo.o=3,",
",3=o#==============#o=3,",
",3=o&66366333666366&o=3,",
",3=o$,,,,,,,,,,,,,,$o=3,",
",3=o$,,,,,,,,,,,,,,$o=3,",
",3=o$,,,,,,,,,,,,,,$o=3,",
",3=o$,,,,,,,,,,,,,,$o=3,",
",3=o$,,,,,,,,,,,,,,$o=3,",
",3=o$,,,,,,,,,,,,,,$o=3,",
",3=o&,,,,,,,,,,,,,,&o=3,",
",3=o&,,,,,,,,,,,,,,&o=3,",
",3=o+&&$$$$$$$$$$&$+o=3,",
",3:@XooooooooooooooX@:3,",
",,>:================:>,,",
",,,333333333333333333,,,",
",,,,,,,,,,,,,,,,,,,,,,,,"
};
