/* XPM */
static char *maximizeO[] = {
/* columns rows colors chars-per-pixel */
"30 72 226 2 ",
"   c #0F4712",
".  c #115415",
"X  c #145F18",
"o  c #146018",
"O  c #156419",
"+  c #156719",
"@  c #166719",
"#  c #15671A",
"$  c #16671A",
"%  c #127617",
"&  c #117A16",
"*  c #117A17",
"=  c #127B17",
"-  c #17711C",
";  c #18751D",
":  c #19751D",
">  c #147C19",
",  c #147D19",
"<  c #157D1A",
"1  c #167D1B",
"2  c #197A1E",
"3  c #1A7A1E",
"4  c #1A7C1E",
"5  c #1B801F",
"6  c #1B8120",
"7  c #1B8220",
"8  c #1C8220",
"9  c #1B8520",
"0  c #1C8421",
"q  c #1C8521",
"w  c #1C8621",
"e  c #1C8721",
"r  c #1D8422",
"t  c #1D8522",
"y  c #1E8523",
"u  c #1E8623",
"i  c #1F8624",
"p  c #1A8A20",
"a  c #1B8A20",
"s  c #1D8B22",
"d  c #1E8D23",
"f  c #1E9023",
"g  c #1F9124",
"h  c #1F9224",
"j  c #1F9424",
"k  c #219D27",
"l  c #338A37",
"z  c #338B38",
"x  c #348B38",
"c  c #348B39",
"v  c #358B39",
"b  c #358C3A",
"n  c #368C3A",
"m  c #3B8D3F",
"M  c #1CA723",
"N  c #1CAD23",
"B  c #1CAE23",
"V  c #1CAD24",
"C  c #1CAE24",
"Z  c #1DAE24",
"A  c #1FB126",
"S  c #1FB127",
"D  c #22A328",
"F  c #22A429",
"G  c #23A629",
"H  c #20B127",
"J  c #20B128",
"K  c #21B128",
"L  c #20B228",
"P  c #25B02C",
"I  c #27B72E",
"U  c #27B72F",
"Y  c #28B72F",
"T  c #26B82D",
"R  c #26B82E",
"E  c #26B92E",
"W  c #25BD2D",
"Q  c #26BD2D",
"!  c #25BE2D",
"~  c #28B730",
"^  c #29B730",
"/  c #29B830",
"(  c #2AB830",
")  c #28C030",
"_  c #28C430",
"`  c #29C431",
"'  c #29C531",
"]  c #29C731",
"[  c #3B8D40",
"{  c #3C8D40",
"}  c #3C8E40",
"|  c #3D8E42",
" . c #3D9342",
".. c #3E9342",
"X. c #3DB743",
"o. c #3DB843",
"O. c #3EB844",
"+. c #3FB845",
"@. c #409444",
"#. c #419445",
"$. c #419545",
"%. c #419546",
"&. c #4B964F",
"*. c #4C9750",
"=. c #4D9751",
"-. c #4E9751",
";. c #4E9852",
":. c #44B84A",
">. c #45B84A",
",. c #45B84B",
"<. c #47B94C",
"1. c #47BD4D",
"2. c #48BE4F",
"3. c #49BE4F",
"4. c #49BF4F",
"5. c #49BF50",
"6. c #4ABE50",
"7. c #4ABF50",
"8. c #54BE59",
"9. c #54BE5A",
"0. c #55BE5A",
"q. c #56BF5B",
"w. c #56BF5C",
"e. c #57BF5C",
"r. c #63A566",
"t. c #64A567",
"y. c #64A568",
"u. c #65A568",
"i. c #65A569",
"p. c #65A669",
"a. c #6AC66F",
"s. c #6BC670",
"d. c #6BC770",
"f. c #6CC771",
"g. c #81B684",
"h. c #82B685",
"j. c #85B787",
"k. c #86B888",
"l. c #87B889",
"z. c #87B989",
"x. c #95BE97",
"c. c #95BF97",
"v. c #96BF98",
"b. c #BFBFBF",
"n. c #87D08B",
"m. c #88D08C",
"M. c #8AD18E",
"N. c #8BD28E",
"B. c #8BD28F",
"V. c #8CD28F",
"C. c #9CC39F",
"Z. c #8CD290",
"A. c #99D49C",
"S. c #9AD49D",
"D. c #9AD59D",
"F. c #9AD59E",
"G. c #9BD59E",
"H. c #9EC4A0",
"J. c #9FC4A0",
"K. c #9FC4A1",
"L. c #A1D8A4",
"P. c #A2D8A5",
"I. c #A3D8A6",
"U. c #C7C7C7",
"Y. c #C2D9C3",
"T. c #C4D9C5",
"R. c #C4DAC5",
"E. c #C5DAC6",
"W. c #CDDECE",
"Q. c #CEDECE",
"!. c #D7D7D7",
"~. c #D0DFD1",
"^. c #D8D8D8",
"/. c #C4E4C6",
"(. c #C6E4C8",
"). c #C6E5C8",
"_. c #C7E5C8",
"`. c #C7E5C9",
"'. c #CFE6D0",
"]. c #CFE7D1",
"[. c #D1E0D1",
"{. c #D1E0D2",
"}. c #D2E7D3",
"|. c #D2E7D4",
" X c #D3E8D4",
".X c #DAE5DA",
"XX c #DBE5DB",
"oX c #DBE5DC",
"OX c #DBE6DC",
"+X c #DCE6DC",
"@X c #DCE6DD",
"#X c #DDE6DD",
"$X c #DDE7DD",
"%X c #DBEBDC",
"&X c #DCEBDD",
"*X c #DDEBDD",
"=X c #DDEBDE",
"-X c #DEECDE",
";X c #DEECDF",
":X c #E9E9E9",
">X c #E9EDE9",
",X c #E9EDEA",
"<X c #EAEEEA",
"1X c #EAEFEA",
"2X c #EAF0EA",
"3X c #EAF0EB",
"4X c #EFF0EF",
"5X c #EFF1EF",
"6X c #EFF0F0",
"7X c #F0F1F0",
"8X c #F2F2F2",
"9X c #F3F2F2",
"0X c #F2F2F3",
"qX c #F3F2F3",
"wX c #F3F3F3",
"eX c #F4F3F4",
"rX c #F6F3F6",
"tX c #F4F4F4",
"yX c #F6F4F6",
"uX c #F7F4F6",
"iX c #F7F5F7",
"pX c #F8F4F8",
"aX c #F9F4F8",
"sX c #F9F4F9",
"dX c #F9F6F9",
"fX c #FAF6F9",
/* pixels */
"8X8X8X8X8X8X8X8X8X8X8X8X8X8X8X8X8X8X8X8X8X8X8X8X8X8X8X8X8X8X",
"8X8X8X8X8X8X8X8X8X8X8X8X8X8X8X8X8X8X8X8X8X8X8X8X8X8X8X8X8X8X",
"8X8X8X8X8X8X8X8X8X8X8X8X8X8X8X8X8X8X8X8X8X8X8X8X8X8X8X8X8X8X",
"8X8X8X8X8X8X8X8X8X8X8X8X8X4X8X8X8X8X8X8X8X8X8X8X8X8X8X8X8X8X",
"8X8X8X8X8X8X8X8X8X8X8X8X8X8X8X8X8X8X8X8X8X8X8X8X8X8X8X8X8X8X",
"8X8X8X8X8X8X8X8X8X8X8X8X8X8X8X8X8X8X8X8X8X8X8X8X8X8X8X8X8X8X",
"8X8X8X8X8X8X8X8X8X8X8X8X8X8X8X8X8X8X8X8X8X8X8X8X8X8X8X8X8X8X",
"8X8X8X8X8X8X8X8X8X8XrXrXpXpXpXpXpXpXyXeX8X8X8X8X8X8X8X8X6X8X",
"8X8X8X8X8X8X8X8X8X8X1X=X X}.'.'.'. X;X2X8X8X8X8X8X8X8X8X8X8X",
"8X8X8X8X8X8X8X8XwX1X`.Z.e.<.<.,.,.q.B.`.4X8X8X8X8X8X8X8X8X8X",
"8X8X8X8X8X8X8X8X=XG.f.7.^ C M M C / 3.s.S.;X8X8X8X8X8X8X8X8X",
"8X8X8X8X8X8X8X=XI.+.J R ) P k k P ) R H O.I.%X8X8X8X8X8X8X8X",
"8X8X8X8X8X8X6XS.o./ ! ` ` F s e F ` ` ) ^ +.G.6X8X8X8X8X8X8X",
"8X8X8X8XrX1X`.f.S ! ` ] ` F 5 5 F ] ] ` ! C s.(.1X8X8X8X8X8X",
"8X8X8X8XyX=XB.3.R _ ] ] ` F 6 6 F ] ] ] ) R 3.M.=XrX8X8X8X8X",
"8X8X8X8XpX Xq.^ _ ` ] ] ] F 6 6 F ] ] ] ` ) I 0.|.pX8X8X8X8X",
"8X8X8X8XpX'.,.C P F F F F s - - s F F D F P B ,.'.pX8X8X8X8X",
"8X8X8X8XpX'.<.M k e 6 6 6 - X o - 6 6 5 e k M <.}.pX8X8X8X8X",
"8X8X8X8XpX'.<.M k a 5 5 6 - o o - 6 6 5 e k M <.'.pX8X8X8X8X",
"8X8X8X8XpX'.>.C P G F F F s - - s F F D F P C ,.'.pX8X8X8X8X",
"8X8X8X8XpX|.0.Y ) ` ] ] ` F 6 6 F ] ] ] ` _ ^ q.|.pX8X8X8X8X",
"8X8X8X8XrX=XB.1.R _ ] ] ] F 6 6 F ] ] ] ` R 7.Z.=XrX8X8X8X8X",
"8X8X8X8X8X1X/.a.H ! ` ] ] F 5 5 F ] ` ` ! J f.`.1X8X8X8X8X8X",
"8X8X8X8X8X8X4XG.O.~ ) ` ` F w w G ` ` ! / O.S.4X8X8X8X8X8X8X",
"8X8X8X8X8X8X8X%XL.X.H I ) P k k P _ R S X.I.=X8X8X8X8X8X8X8X",
"8X8X8X8X8X8X8X8X%XG.a.1.I N M M C / 3.s.A.=X8X8X8X8X8X8X8X8X",
"8X8X8X8X8X8X8X8X8X6X/.n.8.>.<.<.,.0.B.`.4X8X8X8X8X8X8X8X8X8X",
"8X8X8X8X8X8X8X8X8X8X1X%X}.'.'.}.'.|.=X1X8X8X8X8X8X8X8X8X8X8X",
"8X8X8X8X8X8X8X8X8X8XrXrXyXpXpXpXpXpXrXrX8X8X8X8X8X8X8X8X8X8X",
"8X8X8X8X8X8X8X8X8X8X8X8X8X8X8X8X8X8X8X8X8X8X8X8X8X8X8X8X8X8X",
"8X8X8X8X8X8X8X8X8X8X8X8X8X8X8X8X8X8X8X8X8X8X8X8X8X8X8X8X8X8X",
"8X8X8X8X8X8X8X8X8X8X8X8X8X8X8X8X8X8X8X8X8X8X8X8X8X8X8X8X8X8X",
"9X9X9X9X9X9X9X9X8XwX8XwXwX8X8X8X8XwX8XwXwX8X8XwX9X9X9X9X9X8X",
"9X9X9X9X9X9X9X9X9X8X8X8X8X8X8X8X8X8X8X8X8X8XwXwX9X9X9X9X9X8X",
"!.!.!.!.!.!.!.!.!.!.!.!.!.!.!.!.!.!.!.!.!.!.!.!.!.!.!.!.!.!.",
"U.U.U.U.U.U.U.U.U.U.U.U.U.U.U.U.U.U.U.U.U.U.U.U.U.U.U.U.U.U.",
"1X:X:X:X1X:X:X:X:X:X:X:X:X:X:X1X:X:X:X:X:X:X:X1X:X1X:X:X>X:X",
"9X9XwXwX9X9X9X9XyX9XwXwXyXwX9XwXwXwXyXwXwXwXwXwXwXwXwXwXwX9X",
"9X9X9X9X8X8X8X9X9X9X9X9X8X8X8X8X8X8X9X9X8X8X8X8X8X8X8X8X8X8X",
"9X9X9X9X8X8X8X9X9X9X9X9X8X8X8X8X8X9X9X9X8X8X8X8X8X8X8X8X8X9X",
"9X9X9X9X9X8X5X9X8X8X8X8X8X8X8X8X8X8X8X8X8X8X8X8X8X8X8X8X8X8X",
"8X9X5X8X9X9X9X9X8X8X8X8X8X8X8X9X8X8X9X9X8X8X8X8X8X9X8X8X8X8X",
"8X9X9X9X9X9X9X9X8X8X8X8X8X8X8X9X8X9X8X9X8X8X8X8X9X9X8X8X8X9X",
"8X5X9X9X9X9X5X8X8X8XwXdXdXpXpXpXdXdXyX9X8X8X8X8X7X8X8X8X7X9X",
"8X8X8X8X9X9X9X9XwXwX1X$X{.W.W.W.W.{.%X1X8X8X8X8X8X8X8X8X8X9X",
"6X8X8X8X9X5X9X9X8X7XR.l.;.m | | m ;.j.T.4X8X9X8X8X8X8X8X8X9X",
"8X8X8X8X8X8X9X9X%Xx.p.$.u * % % > e ..p.C.+X9X9X9X8X7X8X8X8X",
"8X8X8X8X8X8X8X%XK.n < 5 d t : : t d 5 > l C..X9X9X9X9X8X8X8X",
"8X8X8X8X8X8X8Xx.z i 5 j j 4 O O 4 k s 5 e c x.7XwXwXwX8X9X9X",
"8X8X8X8XwX1XR.y.< a h j j 1 o o ; d k s 5 < t.R.1XwX8X8X7X8X",
"8X8X8X8XyX$Xj.$.w h h j j 3 o o 3 k h k j 5 @.j.+XyX8X8X8X8X",
"8X8X8X8XpX{.;.w d h j j h 3 o o 3 h h h j h e *.~.dX8X8X8X8X",
"8X8X8X8XdXW.m > 6 3 3 3 3 $ . . $ 4 3 3 4 6 * [ W.pX8X8X8X7X",
"8X8X8X8XpXW.m % ; O X o o .     . o o o O ; % | ~.pX9X9X9X9X",
"8X8X8X8XpXW.| % ; O o o o .     . o o o O ; % | W.fXwX9X9X8X",
"8X8X8X8XfX[.m > 6 4 3 3 3 $ . . O 3 3 3 4 6 * | W.pX9X9X9X8X",
"8X8X8X8XdX{.*.e d j j j j 3 o o 3 j j j h d e ;.~.iX8X8X8X8X",
"8X8X8X8XyX$Xh.m w h j h j 3 o o 3 j j j j 5 $.j.$XrX8X8X8X8X",
"8X8X8X8X9X1XY.r.< a h h j 3 o o 3 j j j 5 5 r.Y.1XrX8X8X8X8X",
"8X8X8X8X8X8X4XC.c i a h h 3 O O 4 j h 5 d n C.2X8X8X8X8X8X8X",
"8X8X8X8X8X8X8X.XC.c < 5 d 6 ; ; t s e > l K..X8X8X8X8X8X8X8X",
"8X8X8X8X8X8X8X8X.Xx.r. .e * % % * t @.y.x.oX8X8X8X8X8X8X8X8X",
"8X8X8X8X8X8X8X8X8X4XY.g.&.| | | { *.l.R.8X8X8X8X8X8X8X8X8X8X",
"8X8X8X8X8X8X8X8X8X8X1X$X~.W.W.W.W.~.$X1X8X8X8X8X8X8X8X8X8X8X",
"8X8X8X8X8X8X8X8X8X8XeXrXaXpXsXsXfXfXpXrX8X8X8X8X8X8X8X8X8X8X",
"8X8X8X8X8X8X8X8X8X8X8X8X9X9X6X9XrX6X8X8X8X8X8X8X8X8X8X8X8X8X",
"8X8X8X8X8X8X8X8X8X8X8X8X6X9X9X9X8X8X8X8X8X8X8X8X8X8X8X8X8X8X",
"8X8X8X8X8X8X8X8X8X8X8X8XeX9X6XeX8X8X8X8X8X8X8X8X8X8X8X8X8X8X",
"9X9X9XrX8X8X8X8XeX9X9X8X9X9XeXeX8X8XwX8X8XwX8XwX9X9XwXwX8X8X",
"9X9X9XpX8X8X8X8XeXeX9X9X9X9X9XeX8X8XwXwX8X8XwXwX9X9X9XwX8X8X",
"!.!.^.^.^.^.!.!.!.^.!.!.!.!.!.!.!.!.!.^.!.^.^.^.!.!.!.^.!.!.",
"b.b.b.b.b.U.U.K.b.b.b.b.b.b.b.b.b.b.b.b.b.b.b.b.b.b.b.b.b.b."
};
