/* XPM */
static char *menusel[] = {
/* columns rows colors chars-per-pixel */
"3 3 4 1 ",
"  c #4682F2",
". c #4785F8",
"X c #4887FC",
"o c #4989FF",
/* pixels */
"ooo",
"oX.",
"o. "
};
