/* XPM */
static char *menuButtonA[] = {
/* columns rows colors chars-per-pixel */
"36 72 12 1 ",
"  c #CBCBCB",
". c #D7D7D7",
"X c #D9D9D9",
"o c #DDDDDD",
"O c #E6E6E6",
"+ c #EBEBEB",
"@ c #EFEFEF",
"# c #F1F1F1",
"$ c #F1F2F1",
"% c #F2F2F2",
"& c #F3F3F3",
"* c #F4F3F4",
/* pixels */
"%%%%%%%%%%%%%%%%%%%%%%%%%%%%%%%%%%%%",
"%%%%%%%%%%%%%%%%%%%%%%%%%%%%%%%%%%%%",
"%%%%%%%%%%%%%%%%%%%%%%%%%%%%%%%%%%%%",
"%%%%%%%%%%%%%%%%%%%%%%%%%%%%%%%%%%%%",
"%%%%%%%%%%%%%%%%%%%%%%%%%%%%%%%%%%%%",
"%%%%%%%%%%%%%%%%%%%%%%%%%%%%%%%%%%%%",
"%%%%%%%%%%%%%%%%%%%%%%%%%%%%%%%%%%%%",
"%%%%%%%%%%%%%%%%%%%%%%%%%%%%%%%%%%%%",
"%%%%%%%%%%%%%%%%%%%%%%%%%%%%%%%%%%%%",
"%%%%%%%%%%%%%%%%%%%%%%%%%%%%%%%%%%%%",
"%%%%%%%%%%%%%%%%%%%%%%%%%%%%%%%%%%%%",
"%%%%%%%%%%%%%%%%%%%%%%%%%%%%%%%%%%%%",
"%%%%%%%%%%%%%%%%%%%%%%%%%%%%%%%%%%%%",
"%%%%%%%%%%%%%%%%%%%%%%%%%%%%%%%%%%%%",
"%%%%%%%%%%%%%%%%%%%%%%%%%%%%%%%%%%%%",
"%%%%%%%%%%%%%%%%%%%%%%%%%%%%%%%%%%%%",
"%%%%%%%%%%%%%%%%%%%%%%%%%%%%%%%%%%%%",
"%%%%%%%%%%%%%%%%%%%%%%%%%%%%%%%%%%%%",
"%%%%%%%%%%%%%%%%%%%%%%%%%%%%%%%%%%%%",
"%%%%%%%%%%%%%%%%%%%%%%%%%%%%%%%%%%%%",
"%%%%%%%%%%%%%%%%%%%%%%%%%%%%%%%%%%%%",
"%%%%%%%%%%%%%%%%%%%%%%%%%%%%%%%%%%%%",
"%%%%%%%%%%%%%%%%%%%%%%%%%%%%%%%%%%%%",
"%%%%%%%%%%%%%%%%%%%%%%%%%%%%%%%%%%%%",
"%%%%%%%%%%%%%%%%%%%%%%%%%%%%%%%%%%%%",
"%%%%%%%%%%%%%%%%%%%%%%%%%%%%%%%%%%%%",
"%%%%%%%%%%%%%%%%%%%%%%%%%%%%%%%%%%%%",
"%%%%%%%%%%%%%%%%%%%%%%%%%%%%%%%%%%%%",
"%%%%%%%%%%%%%%%%%%%%%%%%%%%%%%%%%%%%",
"%%%%%%%%%%%%%%%%%%%%%%%%%%%%%%%%%%%%",
"%%%%%%%%%%%%%%%%%%%%%%%%%%%%%%%%%%%%",
"%%%%%%%%%%%%%%%%%%%%%%%%%%%%%%%%%%%%",
"*@$@*@$@*@$@*@$@%@%@%%@%%@%@%@%%%@%@",
"++++++++++++++++++++++++++++++++++++",
"oooooooooooooooooooooooooooooooooooo",
"....................................",
"OOOOOOOOOOOOOOOOOOOOOOOOOOOOOOOOOOOO",
"@@@@@@@@@@@@@@@@@@@@@@@@@@@@@@@@@@@@",
"*$*$$$*$$$*$$$*$%%%%%%%%%%%%%%%%%%%%",
"$$*$*$$$*$*$*$$$%%%%%%%%%%%%%%%%%%%%",
"$$$*$$$$%%%%%%$*%%%%%%%%%%%%%%%%%%%%",
"$*$*$*$*%%%%%%**%%%%%%%%%%%%%%%%%%%%",
"$**$$$$*%%%%@@*@%%%@@%%@%%%%%%%%%%%%",
"*@$$$**@%%%%*$$$%@%%%%%%%%%%%%%%%%%%",
"$$$$**$$%%%%%%%%%%%%*%%%%%%%%%%%%%%%",
"*$**$$*$%%%%%%%%%%%%%%%%%%%%%%%%%%%%",
"$$@*$*$$%%%%%%%%%%%%%%%%%%%%%%%%%%%%",
"$**$$$$*%%%%%%%%%%%%%%%%%%%%%%%%%%%%",
"$$$*$*$$$*$*$$$$%%%%%%%%%%%%%%%%%%%%",
"$**@$$$*$$$$$*$*%%%%%%%%%%%%%%%%%%%%",
"$$*$$*$$$***$$$*%%%%%%%%%%%%%%%%%%%%",
"**$$$*$**@$$$**@%%%%%%%%%%%%%%%%%%%%",
"$$$$*$@**$$$**$$%%%%%%%%%%%%%%%%*%%%",
"$*$**$*$$$**$$$*%%%%%%%%%%%%%%%%*%%%",
"$$$*$$$$$$$$@*$$%%%%%%%%%%%%%%%%*%%%",
"$**@$*$*$*$**$$*%%%%%%%%%%%%%%%%*%%%",
"$**$@*$*$*$*$$$*%%%%%%%%%%%%%%%**%%%",
"$$$$*$$$$$$$$*$$%%%%%%%%%%%%%%%%*%%%",
"$*$**$*$$***$$$*%%%%%%%%%%%%%%%%*%%%",
"*@$$*$$$*@$$***@%%%%%%%%%%%%%%%%%%%%",
"**$$$*$$*$$$$*$$%%%%%%%%%%%%%%%%%%%%",
"$$*$$*$*$$*$$$$*%%%%%%%%%%%%%%%%%%%%",
"$*$$*$$*$$$*@*$$%%%%%%%%%%%%%%%%%%%%",
"$$$*@*$$$*$**$$*%%%%%%%%%%%%%%%%%%%%",
"$*$$**$$$$**$$*$$@**$$*$*$$*$$$$*$$$",
"$$$*$$*$$*$$*$$$$*$$*$$$*$$*$*$*$$*$",
"*@*$$$$$$$$*$$***$*$$$$*$$$$$$$*$*$*",
"$**$**$**$***$$$$$*$*$**$**$*$*$$*$*",
"*@*@@$@$@$$@@$$@@$$@*@$@@*@$@@*@$@*@",
"++++++++++++++++++++++++++++++++++++",
"XXXXXXXXXXXXo.XXXXXXo..Xo.XXX.o.XXX.",
"                                    "
};
