/* XPM */
static char *minimizeO[] = {
/* columns rows colors chars-per-pixel */
"30 72 216 2 ",
"   c #846505",
".  c #856605",
"X  c #8B6B05",
"o  c #A27C07",
"O  c #A57F07",
"+  c #A78007",
"@  c #AC8200",
"#  c #A88106",
"$  c #A98106",
"%  c #A98207",
"&  c #AB8307",
"*  c #AC8307",
"=  c #AE8607",
"-  c #B38700",
";  c #B68A00",
":  c #B68B00",
">  c #B78B01",
",  c #B68B02",
"<  c #B78B02",
"1  c #B58B07",
"2  c #B68B07",
"3  c #BB8D00",
"4  c #BC8E00",
"5  c #BD9207",
"6  c #BE9207",
"7  c #BC9009",
"8  c #BC9109",
"9  c #BC910A",
"0  c #BC910B",
"q  c #BD910B",
"w  c #BD920B",
"e  c #BE920C",
"r  c #BB9723",
"t  c #BC9723",
"y  c #BD9824",
"u  c #BD9825",
"i  c #BC992C",
"p  c #BC9A2C",
"a  c #BC9A2D",
"s  c #BD9A2D",
"d  c #BD9A2E",
"f  c #BD9B2E",
"g  c #C39405",
"h  c #C39505",
"j  c #C39506",
"k  c #C99A07",
"l  c #CA9A07",
"z  c #C59708",
"x  c #C69708",
"c  c #C59808",
"v  c #C69808",
"b  c #C99A08",
"n  c #CA9A08",
"m  c #CA9B08",
"M  c #CB9B08",
"N  c #CB9C08",
"B  c #CC9C08",
"V  c #CD9C08",
"C  c #CD9D08",
"Z  c #DDA800",
"A  c #D3A208",
"S  c #D4A309",
"D  c #D7A509",
"F  c #E6AF00",
"G  c #E3AF09",
"H  c #E4AF09",
"J  c #EAB202",
"K  c #EAB302",
"L  c #EBB303",
"P  c #EFB600",
"I  c #EBB304",
"U  c #EEB80B",
"Y  c #EFB80B",
"T  c #EEB80C",
"R  c #EFB80C",
"E  c #EEB80D",
"W  c #EFB80D",
"Q  c #EFB90D",
"!  c #F0B600",
"~  c #F0B700",
"^  c #F0B701",
"/  c #F1B701",
"(  c #F6BD07",
")  c #F0B909",
"_  c #F1B909",
"`  c #F6BD08",
"'  c #F7BD08",
"]  c #F0B90E",
"[  c #F8BF0A",
"{  c #F9BF0A",
"}  c #C29E2D",
"|  c #C29F2E",
" . c #C39F30",
".. c #C29F31",
"X. c #C39F31",
"o. c #C3A031",
"O. c #C2A23E",
"+. c #C2A23F",
"@. c #E8B924",
"#. c #E8BA25",
"$. c #E9BA26",
"%. c #E9BA27",
"&. c #E9BB27",
"*. c #E7BB2D",
"=. c #E7BA2E",
"-. c #E7BB2E",
";. c #E7BB2F",
":. c #ECBF2F",
">. c #E7BB30",
",. c #ECBF30",
"<. c #EDBF32",
"1. c #FCC209",
"2. c #FCC20A",
"3. c #FDC20A",
"4. c #FDC30A",
"5. c #FEC30A",
"6. c #FEC40A",
"7. c #FFC40A",
"8. c #FFC50A",
"9. c #ECC032",
"0. c #EDC032",
"q. c #EDC033",
"w. c #E8C03F",
"e. c #C2A340",
"r. c #C3A340",
"t. c #CAAE57",
"y. c #CAAE58",
"u. c #CAAF58",
"i. c #CAAF59",
"p. c #D3BD77",
"a. c #D3BD79",
"s. c #D4BF7B",
"d. c #D4BF7C",
"f. c #D4BF7D",
"g. c #D5BF7D",
"h. c #E8C040",
"j. c #E9C040",
"k. c #E9C041",
"l. c #E9C142",
"z. c #EBC858",
"x. c #EBC859",
"c. c #EBC85A",
"v. c #EBC95A",
"b. c #ECC85A",
"n. c #ECC95A",
"m. c #D4C07D",
"M. c #D5C07D",
"N. c #EDD178",
"B. c #EED17A",
"V. c #EDD27C",
"C. c #EED37D",
"Z. c #EED37E",
"A. c #BFBFBF",
"S. c #D6C48D",
"D. c #D6C58D",
"F. c #D7C58E",
"G. c #D9C995",
"H. c #DACA97",
"J. c #DACA98",
"K. c #ECD58E",
"L. c #ECD68E",
"P. c #EDD68F",
"I. c #EED996",
"U. c #EED998",
"Y. c #E5DBBD",
"T. c #E5DCBE",
"R. c #F1E4BE",
"E. c #C7C7C7",
"W. c #D7D7D7",
"Q. c #D8D8D8",
"!. c #E5DDC0",
"~. c #E6DDC0",
"^. c #E6DDC1",
"/. c #E7E0CA",
"(. c #E7E0CB",
"). c #E8E2CE",
"_. c #F1E5C0",
"`. c #F1E5C1",
"'. c #F0E7CA",
"]. c #F0E7CB",
"[. c #F0E8CE",
"{. c #F0E8CF",
"}. c #EBE6D8",
"|. c #EBE7D9",
" X c #EBE7DA",
".X c #ECE7DA",
"XX c #ECE8DA",
"oX c #ECE8DB",
"OX c #F1EBD8",
"+X c #F1EBD9",
"@X c #F1EBDA",
"#X c #F1ECDA",
"$X c #F1ECDB",
"%X c #E9E9E9",
"&X c #F0EEE8",
"*X c #F0EEE9",
"=X c #F2F0E9",
"-X c #F1F1EE",
";X c #F1F1EF",
":X c #F2F1EE",
">X c #F2F1EF",
",X c #F1F1F0",
"<X c #F2F1F0",
"1X c #F2F2F2",
"2X c #F2F2F3",
"3X c #F2F3F3",
"4X c #F2F3F4",
"5X c #F3F3F4",
"6X c #F2F3F7",
"7X c #F3F4F7",
"8X c #F4F4F4",
"9X c #F2F4F9",
"0X c #F2F4FA",
"qX c #F4F5F9",
"wX c #F4F5FA",
"eX c #F4F6FA",
/* pixels */
"1X1X1X1X1X1X1X1X1X1X1X1X1X1X1X1X1X1X1X1X1X1X1X1X1X1X1X1X1X1X",
"1X1X1X1X1X1X1X1X1X1X1X1X1X1X1X1X1X1X1X1X1X1X1X1X1X1X1X1X1X1X",
"1X1X1X1X1X1X1X1X1X1X1X1X1X1X1X1X1X1X1X1X1X1X1X1X1X1X1X1X1X1X",
"1X1X1X1X1X1X1X1X1X1X1X1X1X;X1X1X1X1X1X1X1X1X1X1X1X,X1X1X1X1X",
"1X1X1X1X1X1X1X1X1X1X1X1X1X1X1X1X1X1X1X1X1X1X1X1X1X1X1X1X1X1X",
"1X1X1X1X1X1X1X1X1X1X1X1X1X1X1X1X1X1X1X1X1X1X1X1X1X1X1X1X1X1X",
"1X1X1X1X1X1X1X1X1X1X1X1X1X1X1X1X1X1X1X1X1X1X1X1X1X1X1X1X1X1X",
"1X1X1X1X1X1X1X1X1X1X6X6X9X9X9X9X9X9X6X1X1X1X1X1X1X1X1X1X,X1X",
"1X1X1X1X1X1X1X1X1X1X*X$X{.].].].).{.$X=X8X8X1X1X1X1X1X1X1X1X",
"1X1X1X1X1X1X1X1X6X*X`.Z.l.>.>.>.=.k.C.R.;X1X1X1X1X1X1X1X1X1X",
"1X1X1X1X1X1X1X6XOXK.b.<.E / / / P E 9.c.K.$X8X1X1X1X1X1X1X1X",
"1X1X1X1X1X1X1XOXU.$.I ) [ 5.5.5.1.1.Y K %.I.OX8X1X1X1X1X1X1X",
"1X1X1X1X1X1X1XK.#.E ( 5.5.7.7.5.7.5.5.( E $.K.1X1X1X1X1X1X1X",
"1X1X1X1X6X=X`.b.K ` 5.7.5.5.7.7.7.7.5.5.( K z.R.*X6X1X1X1X1X",
"1X1X1X1X6XOXZ.0.) 5.7.7.7.7.7.7.7.7.7.7.5.) <.Z.OX6X1X1X1X1X",
"1X1X1X1X9X[.l.E [ 5.7.7.7.7.7.7.7.7.7.5.5.[ Y k.[.6X1X1X1X1X",
"1X1X1X1X9X'.&.F H D A A A A S S S S A A D G F =.].9X1X1X1X1X",
"1X1X1X1X9X).>.Z N = O + + + + + + + + O = N Z >.].9X1X1X1X1X",
"1X1X1X1XeX].>.Z N = O + + + + + + + + O = N Z >.[.9X1X1X1X1X",
"1X1X1X1XeX].;.F G D A S A S S S S S S A D G F =.].9X1X1X1X1X",
"1X1X1X1X9X{.k.E [ 5.5.7.7.7.7.7.7.7.7.7.7.[ E l.[.9X1X1X1X1X",
"1X1X1X1X6XOXB.<.) 5.7.7.7.7.7.7.7.7.7.7.5.) 0.Z.$X6X1X1X1X1X",
"1X1X1X1X8X*XR.z.I ` 2.7.7.7.7.7.7.7.7.5.` I c.`.*X1X1X1X1X1X",
"1X1X1X1X1X1X;XK.&.] [ 2.2.7.7.7.7.5.5.` E $.K.1X1X1X1X1X1X1X",
"1X1X1X1X1X1X1XOXI.$.K ) [ 2.2.2.5.[ ) K $.I.OX1X1X1X1X1X1X1X",
"1X1X1X1X1X1X1X1XOXK.b.:.E I / / P E <.z.K.OX6X1X1X1X1X1X1X1X",
"1X1X1X1X1X1X1X1X1X1XR.N.<.>.>.>.;.l.Z.`.1X1X1X1X1X1X1X1X1X1X",
"1X1X1X1X1X1X1X1X1X1X*XOX[.].].[.].{.$X*X1X1X1X1X1X1X1X1X1X1X",
"1X1X1X1X1X1X1X1X1X1X1X6X9X9X9X9X9X9X6X1X1X1X1X1X1X1X1X1X1X1X",
"1X1X1X1X1X1X1X1X1X1X1X1X1X1X1X1X1X1X1X1X1X1X1X1X1X1X1X1X1X1X",
"1X1X1X1X1X1X1X1X1X1X1X1X1X1X1X1X1X1X1X1X1X1X1X1X1X1X1X1X1X,X",
"1X1X1X1X1X1X1X1X1X1X1X1X1X1X1X1X1X1X1X1X1X1X1X1X1X1X1X1X1X1X",
"1X8X1X1X1X1X8X1X1X1X8X1X1X8X1X1X1X1X1X1X1X8X1X1X1X8X1X1X1X1X",
"1X1X1X8X1X1X1X1X1X1X1X1X1X1X1X1X1X1X8X1X1X1X1X1X1X1X1X8X1X1X",
"W.W.W.W.W.W.W.W.W.W.W.W.W.W.W.W.W.W.W.W.W.W.W.W.W.W.W.W.W.W.",
"E.E.E.E.E.E.E.E.E.E.E.E.E.E.E.E.E.E.E.E.E.E.E.E.E.E.E.E.E.E.",
"%X%X%X%X%X%X%X%X%X%X%X%X%X%X%X%X%X%X%X%X%X%X%X%X%X%X%X%X%X%X",
"8X8X8X8X8X8X8X8X8X8X8X8X8X8X8X8X8X8X8X8X8X8X8X8X8X8X8X8X8X1X",
"1X1X1X1X1X1X1X1X1X1X1X1X1X1X1X1X1X1X1X1X1X1X1X1X1X1X1X1X1X1X",
"1X1X1X1X1X1X1X1X1X1X1X1X1X1X1X1X1X1X1X1X1X1X1X1X1X1X1X1X1X1X",
"1X1X1X1X1X1X1X1X1X1X1X1X1X1X1X1X1X1X1X1X1X1X1X1X1X1X1X1X1X1X",
"1X1X1X1X1X1X1X1X1X1X1X1X1X1X1X1X1X1X1X1X1X1X1X1X1X1X1X1X1X1X",
"1X1X1X1X1X1X1X1X1X1X1X8X1X1X1X1X1X1X1X1X1X1X1X1X1X1X1X1X1X1X",
"1X1X1X1X1X1X1X1X1X1X8X6X9XeXeXeXeXeX6X8X1X1X1X1X1X1X1X1X1X1X",
"1X1X1X1X1X1X1X1X1X1X*XoX).(.(.(.(.).oX%X1X1X1X1X1X1X1X1X1X1X",
"1X1X1X1X1X1X1X1X8X;X!.M.r.s s f f r.M.!.;X1X1X1X1X1X1X1X1X1X",
"1X1X1X1X1X1X1X1XoXS.u.o.8 3 3 3 5 6 o.u.S.|.1X1X1X1X1X1X1X1X",
"1X1X1X1X1X1X1X|.J.u : 8 v N N N k v 6 : u H.|.1X1X1X1X1X1X;X",
"1X1X1X1X8X1X;XS.u w g k N B B B B B n j q u S.1X1X1X1X1X1X1X",
"1X1X1X1X6X=XT.u.: g N B B B B B B B B B g : u.T.*X8X1X1X1X1X",
"1X1X1X1X6XoXM.o.6 N B B B B B B B B B B k 6 o.m.oX6X1X1X1X1X",
"1X1X1X1X9X).r.8 v N B B B B B B B B B B B v 8 O.).9X1X1X1X1X",
"1X1X1X1X9X(.s - 2 = # # # # # & & # # # & 1 - s /.eX1X1X1X1X",
"1X1X1X1X9X(.f @ o X   .   . .   .       X o @ d /.eX1X1X1X1X",
"1X1X1X1XeX(.s @ o X   . . . . .         X o @ s /.eX8X1X1X1X",
"1X1X1X1XeX(.i - 2 = # # & # # # # & # # & 1 - s /.eX1X1X1X1X",
"1X1X1X1X9X).O.7 j N B B B B B B B B B B B v q r.).9X1X1X1X1X",
"1X1X1X1X8XoXa.| 6 n B B B B B B B B B B k 6 ..g.oX6X1X1X1X1X",
"1X1X1X1X6X*XT.i.; g N B B B B B B B B n j 3 i.!.%X8X1X1X1X1X",
"1X1X1X1X1X1X;XS.u q g n B B B B B n k g 8 u F.1X8X8X1X1X1X,X",
"1X1X1X1X1X1X1X|.H.u ; g v N N N n v 6 ; r H.oX1X8X1X1X1X1X1X",
"1X1X1X1X1X1X1X1X}.S.t.} 8 3 3 3 3 8 o.t.S.|.1X1X1X1X1X1X1X1X",
"1X1X1X1X1X1X1X1X1X;XT.m.O.s f f i O.m./.;X1X1X1X1X1X1X1X1X1X",
"1X1X1X1X1X1X1X1X1X1X%XoX(.(.(.(.(.(.OX%X1X1X1X1X1X;X1X1X1X1X",
"1X1X1X1X1X1X1X1X1X1X1X6XeXeXeXeXeXeX6X8X1X1X1X1X1X1X1X1X1X1X",
"1X1X1X1X1X1X1X1X1X1X1X1X1X1X1X1X1X1X1X1X1X1X1X1X1X1X1X1X1X1X",
"1X1X1X1X1X1X1X1X1X1X1X1X1X1X1X1X1X1X1X1X1X1X1X1X1X1X1X1X1X1X",
"1X1X1X1X1X1X1X1X1X1X1X1X1X1X1X1X1X1X1X1X1X1X1X1X1X1X1X1X1X1X",
"8X1X1X8X1X1X1X1X1X1X1X8X1X1X1X1X1X1X8X1X1X1X8X1X1X8X1X1X1X1X",
"1X1X1X1X1X1X1X1X8X1X1X1X1X8X1X1X1X1X1X1X8X1X1X1X1X1X1X1X1X1X",
"Q.Q.Q.Q.Q.Q.Q.Q.Q.Q.Q.Q.Q.Q.Q.Q.Q.Q.Q.Q.W.Q.Q.Q.Q.Q.Q.Q.Q.Q.",
"A.A.A.A.A.A.A.A.A.A.A.A.A.A.A.A.A.A.A.A.A.A.A.A.A.A.A.A.A.A."
};
