/* XPM */
static char *minimizeI[] = {
/* columns rows colors chars-per-pixel */
"30 72 145 2 ",
"   c #846505",
".  c #856605",
"X  c #8B6B05",
"o  c #A27C07",
"O  c #AC8300",
"+  c #A88106",
"@  c #A98106",
"#  c #A98207",
"$  c #AB8307",
"%  c #AC8307",
"&  c #B38800",
"*  c #B48800",
"=  c #B68A00",
"-  c #B68B01",
";  c #B78B01",
":  c #B68B02",
">  c #B78B02",
",  c #B58B07",
"<  c #B68B07",
"1  c #BB8E00",
"2  c #BC8E00",
"3  c #BC8F00",
"4  c #BD8F00",
"5  c #BD9207",
"6  c #BE9207",
"7  c #BB9009",
"8  c #BC9109",
"9  c #BC910A",
"0  c #BC910B",
"q  c #BD910B",
"w  c #BC920B",
"e  c #BD920B",
"r  c #BA9521",
"t  c #BA9622",
"y  c #BB9622",
"u  c #BB9723",
"i  c #BB9624",
"p  c #BB9724",
"a  c #BA972A",
"s  c #BA982A",
"d  c #BA982B",
"f  c #BB982B",
"g  c #BA982C",
"h  c #BB982C",
"j  c #BF9C2C",
"k  c #BF9F3A",
"l  c #BF9F3B",
"z  c #BF9F3C",
"x  c #BFA03D",
"c  c #C39505",
"v  c #C39506",
"b  c #C99A07",
"n  c #CA9A07",
"m  c #C59708",
"M  c #C69708",
"N  c #C59808",
"B  c #C69808",
"V  c #C99A08",
"C  c #CA9A08",
"Z  c #CA9B08",
"A  c #CB9B08",
"S  c #CC9C08",
"D  c #CD9C08",
"F  c #CD9D08",
"G  c #C09D2D",
"H  c #C09D2E",
"J  c #C09D2F",
"K  c #C19D2F",
"L  c #C0A03D",
"P  c #C5AA53",
"I  c #C5AA54",
"U  c #C6AA54",
"Y  c #C6AA55",
"T  c #CDB672",
"R  c #CDB772",
"E  c #CDB874",
"W  c #CDB876",
"Q  c #CDB977",
"!  c #CEB976",
"~  c #CEB977",
"^  c #B2B2B2",
"/  c #BABABA",
"(  c #CFBD85",
")  c #CFBE86",
"_  c #CFBE87",
"`  c #D0BE87",
"'  c #D2C28E",
"]  c #D2C28F",
"[  c #DBD1B3",
"{  c #DBD1B4",
"}  c #DBD2B5",
"|  c #DBD2B6",
" . c #DCD2B5",
".. c #DCD3B6",
"X. c #DCD2B7",
"o. c #DCD3B7",
"O. c #DCD5BF",
"+. c #C3C3C3",
"@. c #C4C4C4",
"#. c #C5C5C5",
"$. c #C6C6C6",
"%. c #C8C8C8",
"&. c #C9C9C9",
"*. c #CACACA",
"=. c #CBCBCB",
"-. c #CECECE",
";. c #DCD5C0",
":. c #DDD6C0",
">. c #DDD7C3",
",. c #DFDBCC",
"<. c #DFDBCD",
"1. c #D0D0D0",
"2. c #D2D2D2",
"3. c #D3D3D3",
"4. c #D4D4D4",
"5. c #D5D5D5",
"6. c #D6D6D6",
"7. c #D7D7D7",
"8. c #D8D8D8",
"9. c #D9D9D9",
"0. c #DCDCDC",
"q. c #DEDEDE",
"w. c #DFDFDF",
"e. c #E0DBCC",
"r. c #E0DBCD",
"t. c #E0DBCE",
"y. c #E0DCCE",
"u. c #E0DCCF",
"i. c #E3E1DC",
"p. c #E3E2DC",
"a. c #E3E2DD",
"s. c #E1E1E1",
"d. c #E2E2E2",
"f. c #E4E4E2",
"g. c #E5E4E3",
"h. c #E4E4E4",
"j. c #E5E5E5",
"k. c #E5E5E6",
"l. c #E5E6E6",
"z. c #E5E6E7",
"x. c #E6E6E6",
"c. c #E7E7E7",
"v. c #E6E7EA",
"b. c #E7E8EC",
"n. c #E7E8ED",
/* pixels */
"j.j.j.j.j.j.j.j.j.g.j.j.j.j.j.j.j.j.j.j.j.j.j.j.j.j.j.j.j.j.",
"j.j.j.j.j.j.j.j.j.j.j.j.j.j.h.j.j.j.j.j.j.j.j.j.j.j.j.j.j.j.",
"j.j.j.j.j.j.j.j.j.j.j.j.j.j.j.j.j.j.j.j.j.j.j.j.j.j.j.j.j.j.",
"j.j.j.j.j.j.j.j.j.j.j.j.j.j.j.j.j.j.j.j.j.j.j.j.j.j.j.j.j.j.",
"j.j.j.j.j.j.j.j.j.j.j.j.j.j.j.j.j.j.j.j.j.j.j.j.j.j.j.j.j.j.",
"j.j.j.j.j.j.j.j.j.j.j.j.j.j.j.j.j.j.j.j.j.j.j.j.j.j.j.j.j.j.",
"j.j.j.j.j.j.j.j.j.j.j.j.j.j.j.j.j.j.j.j.j.j.j.j.j.j.j.j.j.j.",
"j.j.j.j.j.j.j.j.j.j.j.j.v.j.j.j.j.j.j.j.j.j.j.j.j.j.j.j.j.j.",
"j.j.j.j.j.j.j.j.j.j.g.d.q.q.q.q.q.q.d.h.j.j.j.j.j.j.j.j.j.j.",
"j.j.j.j.j.j.j.j.j.j.q.4.=.$.$.$.$.%.4.q.j.j.j.j.j.j.j.j.j.j.",
"j.j.j.j.j.j.j.j.d.7.-.=.%.$.%.%.%.%.=.-.4.d.j.j.j.j.j.j.j.j.",
"j.j.j.j.j.j.j.d.7.$.+.=.2.7.7.7.7.2.=.@.$.7.d.h.j.j.j.j.j.j.",
"j.j.j.j.j.j.j.3.$.=.1.7.7.7.8.8.8.7.7.-.=.$.4.j.j.j.j.j.j.j.",
"j.j.g.j.j.j.q.-.+.1.7.8.8.8.8.8.8.8.7.7.-.+.-.q.j.j.j.j.j.j.",
"j.j.j.j.j.d.4.=.=.7.8.8.8.8.8.8.8.8.8.8.7.=.=.2.d.j.j.j.j.j.",
"j.j.j.j.j.q.=.$.2.7.8.8.8.8.8.8.8.8.8.7.7.2.%.=.w.j.j.j.j.j.",
"j.j.j.j.j.q.$.=.7.7.8.8.8.8.8.8.8.8.8.8.8.7.=.+.q.j.j.j.j.j.",
"j.j.j.j.j.q.@.=.7.8.8.8.8.8.8.8.8.8.8.8.8.7.=.$.w.c.j.j.j.j.",
"j.j.j.j.j.q.$.%.7.7.8.8.8.8.8.8.8.8.8.8.7.7.%.@.q.j.j.j.j.j.",
"j.j.j.j.j.q.$.%.7.7.8.8.8.8.8.8.8.8.8.8.7.7.%.$.w.j.j.j.j.j.",
"j.j.j.j.j.d.=.$.2.7.7.8.8.8.8.8.8.8.8.8.7.1.%.=.d.j.j.j.j.j.",
"j.j.j.j.j.d.2.=.=.7.8.8.8.8.8.8.8.8.8.8.7.=.=.2.d.j.j.j.j.j.",
"j.j.j.j.j.d.q.-.+.1.7.8.8.8.8.8.8.8.8.7.-.+.-.q.d.j.j.j.j.j.",
"j.j.j.j.j.j.h.7.$.=.-.7.7.8.8.7.8.7.7.-.=.$.7.h.j.j.j.j.j.j.",
"j.j.j.j.j.j.j.d.7.$.+.=.2.7.7.7.7.2.=.+.$.7.d.j.j.j.j.j.j.j.",
"j.j.j.j.j.j.j.j.d.3.-.=.=.$.$.=.=.$.=.-.3.d.j.j.j.j.j.j.j.j.",
"j.j.j.j.j.j.j.j.j.j.q.2.=.$.$.$.$.=.7.q.j.j.j.j.j.j.j.j.j.j.",
"j.j.j.j.j.j.j.j.j.j.d.d.q.q.q.w.q.q.d.d.j.j.j.j.j.j.j.j.j.j.",
"j.j.j.j.j.j.j.j.j.j.j.j.j.c.j.c.j.j.j.j.j.j.j.j.j.j.j.j.j.h.",
"j.j.j.j.j.j.j.j.j.j.j.j.j.j.j.j.j.j.j.j.j.j.j.j.j.j.j.j.j.j.",
"j.j.j.j.j.j.j.j.j.j.j.j.j.j.j.j.j.j.j.j.j.j.j.j.j.g.j.j.j.j.",
"j.j.j.j.j.j.j.j.j.j.j.j.j.j.j.j.j.j.j.j.j.j.j.j.j.j.j.j.j.j.",
"j.j.j.j.j.j.j.j.j.j.j.j.j.j.j.j.j.j.j.j.j.j.j.j.j.j.j.j.j.j.",
"j.j.j.j.j.j.j.j.j.j.j.h.j.j.j.j.j.j.j.h.j.j.j.j.j.j.j.g.j.j.",
"=.=.=.=.=.=.=.=.=.=.=.=.=.=.=.=.=.=.=.=.=.=.=.=.=.=.=.=.=.=.",
"/ / / / / / / / / / / / / / / / / / / / / / / / / / / / / / ",
"8.q.q.8.q.0.0.q.8.q.q.8.q.q.8.q.0.q.q.8.q.0.0.q.0.q.q.8.0.0.",
"c.c.c.c.c.c.j.j.c.c.c.c.j.j.c.c.j.j.c.c.c.c.j.j.j.j.c.c.v.j.",
"j.j.j.j.j.j.j.j.j.j.j.j.j.j.j.j.j.j.j.j.j.j.j.j.j.j.j.j.j.j.",
"j.j.j.j.j.j.j.j.j.j.j.j.j.j.j.j.j.j.j.j.j.j.j.j.j.j.j.j.j.j.",
"j.j.j.j.j.j.j.j.j.j.j.j.j.j.j.j.j.j.j.j.j.j.j.j.j.j.j.j.j.j.",
"j.j.j.j.j.j.j.j.j.j.j.j.j.j.j.j.j.j.j.j.j.j.j.j.j.j.j.j.j.j.",
"j.j.j.j.j.j.j.j.j.j.j.v.j.j.j.j.j.j.j.j.j.j.j.j.j.j.j.j.j.j.",
"j.j.j.j.j.j.j.j.j.j.v.c.v.n.n.n.n.n.c.v.j.j.j.j.j.j.j.j.j.j.",
"j.j.j.j.j.j.j.j.j.j.a.u.;.O.O.O.O.>.u.a.j.j.j.j.j.j.j.j.j.j.",
"j.j.j.j.j.j.j.j.j.g. .~ x f h f f x Q | h.j.j.j.j.j.j.j.j.j.",
"j.j.j.j.j.j.j.j.u.` I J e 1 5 1 3 e j I ( <.j.j.j.j.j.j.j.j.",
"j.j.j.j.j.j.j.t.] r = e B C A A C v e - p ] <.j.j.j.j.j.j.j.",
"j.j.j.j.j.j.g.( r e v b A S S S D S b v e r ( g.j.j.j.j.j.j.",
"j.j.j.j.v.a.| I = c S S S S S S D D D C c - P  .a.j.j.j.j.j.",
"j.j.j.j.v.u.Q J e b S S S S S S D D D D b 5 J R u.c.j.j.j.j.",
"j.j.j.j.n.;.z e B S S S S S S S D D D D D B e k >.n.j.j.j.j.",
"j.j.j.j.b.O.f & < % + + + % + + + + + + % < * a ;.n.j.j.j.j.",
"j.j.j.j.b.;.h O o X   .     X     X     X o O h ;.n.j.j.j.j.",
"j.j.j.j.n.;.h O o X                     X o O h ;.n.j.j.j.j.",
"j.j.j.j.n.;.a & < % + + % + + + + + + + % < * a ;.n.j.j.j.j.",
"j.j.j.j.n.;.k 7 b S D D D D D D D D D D C B e L >.c.j.j.j.j.",
"j.j.j.j.v.t.R G 5 b D D D D D D D D D D b 5 J Q <.v.j.j.h.j.",
"j.j.j.j.v.i.| P - v C D D D D D D D D C v > I  .a.v.j.j.j.j.",
"j.j.j.j.j.j.g.` p e v b C D D D D C b c e i ` g.j.j.j.j.j.j.",
"j.j.j.j.j.j.j.<.] r - 5 v C C A C M 5 = r ] <.j.j.j.j.j.j.j.",
"j.j.j.j.j.j.j.j.u.( P j e 1 3 3 1 9 J I ( <.v.j.j.j.j.j.j.j.",
"j.j.j.j.j.j.j.j.j.g.[ R k f h h a z Q | g.j.j.j.j.j.j.j.j.j.",
"j.j.j.j.j.j.j.j.j.j.a.u.;.O.;.;.;.>.u.a.j.j.j.j.j.j.j.j.j.j.",
"j.j.g.j.j.j.j.j.j.j.v.v.n.n.n.n.n.v.v.j.j.j.j.j.j.j.j.j.j.j.",
"j.j.j.j.j.j.j.j.j.j.j.j.j.j.j.j.j.j.j.j.j.j.j.j.j.j.j.j.j.j.",
"j.j.j.j.j.j.j.j.j.j.j.j.j.j.j.j.j.j.j.j.j.j.j.j.j.j.j.j.j.j.",
"j.j.j.j.j.j.j.j.j.j.j.j.j.j.j.j.j.j.j.j.j.j.j.j.j.j.j.j.j.j.",
"j.j.j.j.j.j.j.j.j.j.j.j.j.j.j.j.j.j.j.j.j.v.j.j.j.j.j.j.j.j.",
"j.j.j.j.j.j.j.j.j.j.j.j.j.j.j.j.j.j.j.j.j.j.j.j.j.j.c.j.j.j.",
"-.=.=.=.=.=.=.=.=.=.=.=.-.=.=.=.=.=.=.=.=.=.=.=.-.=.=.=.=.=.",
"^ ^ ^ ^ ^ ^ ^ ^ ^ ^ ^ ^ ^ ^ ^ ^ ^ ^ ^ ^ ^ ^ ^ ^ ^ ^ ^ ^ ^ ^ "
};
