/* XPM */
static char *minimize[] = {
/* columns rows colors chars-per-pixel */
"24 21 13 1 ",
"  c black",
". c #212121",
"X c #222222",
"o c gray40",
"O c #777777",
"+ c #AAAAAA",
"@ c #BBBBBB",
"# c #CCCCCC",
"$ c #CDCDCD",
"% c #CECECE",
"& c #CFCFCF",
"* c #D0D0D0",
"= c #D3D3D3",
/* pixels */
"########################",
"########################",
"########################",
"########################",
"########################",
"########################",
"########################",
"########################",
"########################",
"########################",
"########################",
"########################",
"########################",
"####=============#######",
"####@+++++++++++@#######",
"####O...........O#######",
"####o           o#######",
"####O...........O#######",
"####@+++++++++++@#######",
"####============########",
"########################"
};
