/* XPM */
static char *minimizeA[] = {
/* columns rows colors chars-per-pixel */
"30 72 201 2 ",
"   c #846505",
".  c #856605",
"X  c #8B6B05",
"o  c #A27C07",
"O  c #AC8200",
"+  c #A88106",
"@  c #A98106",
"#  c #A98207",
"$  c #AB8307",
"%  c #AC8307",
"&  c #B38700",
"*  c #B68A00",
"=  c #B68B00",
"-  c #B78B01",
";  c #B68B02",
":  c #B78B02",
">  c #B58B07",
",  c #B68B07",
"<  c #BB8D00",
"1  c #BC8E00",
"2  c #BD9207",
"3  c #BE9207",
"4  c #BC9009",
"5  c #BC9109",
"6  c #BC910A",
"7  c #BC910B",
"8  c #BD910B",
"9  c #BD920B",
"0  c #BE920C",
"q  c #BB9723",
"w  c #BC9723",
"e  c #BD9824",
"r  c #BD9825",
"t  c #BC992C",
"y  c #BC9A2C",
"u  c #BC9A2D",
"i  c #BD9A2D",
"p  c #BD9A2E",
"a  c #BD9B2E",
"s  c #C39405",
"d  c #C39505",
"f  c #C39506",
"g  c #C99A07",
"h  c #CA9A07",
"j  c #C59708",
"k  c #C69708",
"l  c #C59808",
"z  c #C69808",
"x  c #C99A08",
"c  c #CA9A08",
"v  c #CA9B08",
"b  c #CB9B08",
"n  c #CC9C08",
"m  c #CD9C08",
"M  c #CD9D08",
"N  c #EAB202",
"B  c #EAB302",
"V  c #EBB303",
"C  c #EFB600",
"Z  c #EBB304",
"A  c #EEB80B",
"S  c #EEB80C",
"D  c #EFB80C",
"F  c #EEB80D",
"G  c #EFB80D",
"H  c #EFB90D",
"J  c #F0B600",
"K  c #F0B700",
"L  c #F0B701",
"P  c #F1B701",
"I  c #F6BD07",
"U  c #F0B909",
"Y  c #F1B909",
"T  c #F6BD08",
"R  c #F7BD08",
"E  c #F0B90E",
"W  c #F8BF0A",
"Q  c #F9BF0A",
"!  c #C29E2D",
"~  c #C29F2E",
"^  c #C39F30",
"/  c #C29F31",
"(  c #C39F31",
")  c #C3A031",
"_  c #C2A23E",
"`  c #C2A23F",
"'  c #E8B924",
"]  c #E8BA25",
"[  c #E9BA26",
"{  c #E9BA27",
"}  c #E9BB27",
"|  c #E7BA2D",
" . c #E7BA2E",
".. c #E7BB2F",
"X. c #ECBF2F",
"o. c #E7BB30",
"O. c #ECBF30",
"+. c #EDBF32",
"@. c #FCC209",
"#. c #FCC20A",
"$. c #FDC20A",
"%. c #FDC30A",
"&. c #FEC30A",
"*. c #FFC40A",
"=. c #ECC032",
"-. c #EDC032",
";. c #EDC033",
":. c #E8C03F",
">. c #C2A340",
",. c #C3A340",
"<. c #CAAE57",
"1. c #CAAE58",
"2. c #CAAF58",
"3. c #CAAF59",
"4. c #D3BD77",
"5. c #D3BD79",
"6. c #D4BF7B",
"7. c #D4BF7C",
"8. c #D4BF7D",
"9. c #D5BF7D",
"0. c #E8C040",
"q. c #E9C040",
"w. c #E9C041",
"e. c #E9C142",
"r. c #EBC858",
"t. c #EBC859",
"y. c #EBC85A",
"u. c #EBC95A",
"i. c #ECC85A",
"p. c #ECC95A",
"a. c #D4C07D",
"s. c #D5C07D",
"d. c #EDD178",
"f. c #EED17A",
"g. c #EDD27C",
"h. c #EED37D",
"j. c #EED37E",
"k. c #BFBFBF",
"l. c #D6C48D",
"z. c #D6C58D",
"x. c #D7C58E",
"c. c #D9C995",
"v. c #DACA97",
"b. c #DACA98",
"n. c #ECD58E",
"m. c #ECD68E",
"M. c #EDD68F",
"N. c #EED996",
"B. c #EED998",
"V. c #E5DBBD",
"C. c #E5DCBE",
"Z. c #F1E4BE",
"A. c #C7C7C7",
"S. c #D7D7D7",
"D. c #D8D8D8",
"F. c #E5DDC0",
"G. c #E6DDC0",
"H. c #E6DDC1",
"J. c #E7E0CA",
"K. c #E7E0CB",
"L. c #E8E2CE",
"P. c #F1E5C0",
"I. c #F1E5C1",
"U. c #F0E7CA",
"Y. c #F0E7CB",
"T. c #F0E8CE",
"R. c #F0E8CF",
"E. c #EBE6D8",
"W. c #EBE7D9",
"Q. c #EBE7DA",
"!. c #ECE7DA",
"~. c #ECE8DA",
"^. c #ECE8DB",
"/. c #F1EBD8",
"(. c #F1EBD9",
"). c #F1EBDA",
"_. c #F1ECDA",
"`. c #F1ECDB",
"'. c #E9E9E9",
"]. c #F0EEE8",
"[. c #F0EEE9",
"{. c #F2F0E9",
"}. c #F1F1EE",
"|. c #F1F1EF",
" X c #F2F1EE",
".X c #F2F1EF",
"XX c #F1F1F0",
"oX c #F2F1F0",
"OX c #F2F2F2",
"+X c #F2F2F3",
"@X c #F2F3F3",
"#X c #F2F3F4",
"$X c #F3F3F4",
"%X c #F2F3F7",
"&X c #F3F4F7",
"*X c #F4F4F4",
"=X c #F2F4F9",
"-X c #F2F4FA",
";X c #F4F5F9",
":X c #F4F5FA",
">X c #F4F6FA",
/* pixels */
"OXOXOXOXOXOXOXOXOXOXOXOXOXOXOXOXOXOXOXOXOXOXOXOXOXOXOXOXOXOX",
"OXOXOXOXOXOXOXOXOXOXOXOXOXOXOXOXOXOXOXOXOXOXOXOXOXOXOXOXOXOX",
"OXOXOXOXOXOXOXOXOXOXOXOXOXOXOXOXOXOXOXOXOXOXOXOXOXOXOXOXOXOX",
"OXOXOXOXOXOXOXOXOXOXOXOXOX|.OXOXOXOXOXOXOXOXOXOXOXOXOXOXOXOX",
"OXOXOXOXOXOXOXOXOXOXOXOXOXOXOXOXOXOXOXOXOXOXOXOXOXOXOXOXOXOX",
"OXOXOXOXOXOXOXOXOXOXOXOXOXOXOXOXOXOXOXOXOXOXOXOXOXOXOXOXOXOX",
"OXOXOXOXOXOXOXOXOXOXOXOXOXOXOXOXOXOXOXOXOXOXOXOXOXOXOXOXOXOX",
"OXOXOXOXOXOXOXOXOXOX%X%X=X=X=X=X=X=X&XOXOXOXOXOXOXOXOXOXOXOX",
"OXOXOXOXOXOXOXOXOXOX[.`.R.Y.Y.Y.L.R._.{.*X*XOXOXOXOXOXOXOXOX",
"OXOXOXOXOXOXOXOX%X[.I.j.e.o.o.o.| e.h.Z.|.OXOXOXOXOXOXOXOXOX",
"OXOXOXOXOXOXOX%X/.n.i.+.F P P P C F +.y.M._.*XOXOXOXOXOXOXOX",
"OXOXOXOXOXOXOX/.B.[ Z Y W &.&.&.&.W A Z { N./.OXOXOXOXOXOXOX",
"OXOXOXOXOXOX|.n.] F I &.&.*.*.*.&.&.&.R F [ M.[.OXOXOXOXOXOX",
"OXOXOXOX%X[.I.i.B I &.*.*.&.*.*.*.*.*.&.R B i.Z.[.%XOXOXOXOX",
"OXOXOXOX%X`.j.+.Y @.*.*.&.*.*.*.*.*.*.*.@.Y +.n./.%XOXOXOXOX",
"OXOXOXOX=XR.e.F W &.*.*.*.*.*.*.*.*.*.&.&.W H +.R.=XOXOXOXOX",
"OXOXOXOX=XY.| P #.*.*.*.*.*.*.*.*.*.*.*.#.#.P | Y.=XOXOXOXOX",
"OXOXOXOX=XY.| P #.*.*.*.*.*.*.*.*.*.*.*.*.*.P o.Y.=XOXOXOXOX",
"OXOXOXOX;XL.o.P *.*.*.*.*.*.*.*.*.*.*.*.&.&.P o.Y.=XOXOXOXOX",
"OXOXOXOX;XY.| P #.#.*.*.*.*.*.*.*.*.*.*.&.&.P ..Y.=XOXOXOXOX",
"OXOXOXOX&XR.w.D R &.*.*.*.*.*.*.*.*.*.*.&.R F e.R.=X%XOXXXOX",
"OXOXOXOX&X/.f.+.U &.*.*.*.*.*.*.*.*.*.*.&.Y ;.j./.%XOXOXOXOX",
"OXOXOXOX&X[.Z.r.Z R #.*.*.*.*.*.*.*.&.&.R Z p.I.[.OXOXOXOXOX",
"OXOXOXOXOXOXOXn.} E W #.#.*.*.*.&.&.&.R F } n.OXOXOXOXOXOXOX",
"OXOXOXOXOXOXOX/.N.[ B Y W #.#.#.&.R Y Z [ N./.OXOXOXOXOXOXOX",
"OXOXOXOXOXOXOXOX/.n.r.X.F Z P P P U +.i.n./.%XOXOXOXOXOXOXOX",
"OXOXOX|.OXOXOXOXOX+XZ.d.+.o.o.o...e.j.I.|.OXOXOXOXOXOXOXOXOX",
"OXOXOXOXOXOXOXOXOX+X[./.R.Y.Y.R.Y.R.`.[.OXOXOXOXOXOXOXOXOXOX",
"OXOXOXOXOXOXOXOXOXOXOX%X&X=X=X=X=X=X%X%XOXOXOXOXOXOXOXOXOXOX",
"OXOXOXOXOXOXOXOXOXOXOXOXOXOXOXOXOXOXOXOXOXOXOXOXOXOXOXOXOXOX",
"OXOXOXOXOXOXOXOXOXOXOXOXOXOXOXOXOXOXOXOXOXOXOXOXOXOXOXOXOXOX",
"OXOXOXOXOXOXOXOXOXOXOXOXOXOXOXOXOXOXOXOXOXOXOXOXOXOXOXOXOXOX",
"OXOXOXOXOXOXOXOXOXOXOXOXOXOXOXOXOX*XOXOXOXOXOXOXOX*XOXOXOXOX",
"OXOXOXOXOXOXOXOXOXOXOXOXOXOXOXOXOXOXOXOX*XOXOXOXOXOXOXOXOXOX",
"D.D.D.S.D.D.D.D.D.D.D.S.D.D.D.D.D.S.S.S.S.S.S.S.D.S.S.S.S.S.",
"A.A.A.A.A.A.A.A.A.A.A.A.A.A.A.A.A.A.A.A.A.A.A.A.A.A.A.A.A.A.",
"'.'.'.'.'.'.'.'.'.'.'.'.'.'.'.'.'.'.'.'.'.'.'.'.'.'.'.'.'.'.",
"OX*X*X*X*X*X*X*XOX*X*X*X*X*X*X*X*X*X*X*X*X*X*X*X*X*X*X*X*XOX",
"OXOXOXOXOXOXOXOXOXOXOXOXOXOXOXOXOXOXOXOXOXOXOXOXOXOXOXOXOXOX",
"OXOXOXOXOXOXOXOXOXOXOXOXOXOXOXOXOXOXOXOXOXOXOXOXOXOXOXOXOXOX",
"OXOXOXOXOXOXOXOXOXOXOXOXOXOXOXOXOXOXOXOXOXOXOXOXOXOXOXOXOXOX",
"OXOXOXOXOXOXOXOXOXOXOXOXOXOXOXOXOXOXOXOXOXOXOXOXOXOXOXOXOXOX",
"OXOXOXOXOXOXOXOXOXOXOX|.OXOXOXOXOXOXOXOXOXOXOXOXOXOXOXOXOXOX",
"OXOXOXOXOXOXOXOXOXOXOX&X;X;X;X;X;X;X*X%XOXOXOXOXOXOXOXOXOXOX",
"OXOXOXOXOXOXOXOXOXOX'./.L.K.K.K.K.L.~.'.OXOXOXOXOXOXOXOXOXOX",
"OXOXOXOXOXOXOXOXOX|.J.a.,.t a t a ,.s.H.|.OXOXOXOXOXOXOXOXOX",
"OXOXOXOXOXOXOXOX~.l.3.) 0 < 1 1 2 3 ) 1.l.!.OXOXOXOXOXOXOXOX",
"OXOXOXOXOXOXOX~.v.r < 6 z c b g g j 3 : r b.E.OXOXOXOXOXOXOX",
"OXOXOXOXOXOX|.l.w 6 s g b m b m n c c s 0 r l.OXOXOXOXOXOXOX",
"OXOXOXOX&X{.H.3.: s b m m b b m m m m c s * 1.C.[.OXOXOXOXOX",
"OXOXOXOX&X~.s.) 3 b m m m m m m m m m m g 3 ) 6.^.*XOXOXOXOX",
"OXOXOXOX;XL.` 6 z b m m m m m m m m m m b z 6 ` L.;XOXOXOXOX",
"OXOXOXOX=XK.a & > $ + + + + + + $ $ o + % , & t K.;XOXOXOXOX",
"OXOXOXOX=XK.a O o X . . . . . . . . . . X o O p L.>XOXOXOXOX",
"OXOXOXOX;XK.a O o X . . . . . . . .     X o O t K.;XOXOXOXOX",
"OXOXOXOX;XK.t & > $ + + + + + $ $ o $ $ $ , * t K.;XOXOXOXOX",
"OXOXOXOX=XL.` 4 z b m m m m m m m m m m b z 6 ,.L.=XOXOXOXOX",
"OXOXOXOX*X~.5.~ 3 g m m m m m m m m m m g 3 ( 9.~.%XOXOXOXOX",
"OXOXOXOX&X[.C.3.: s b b m m m m m m m c s : 3.H.'.*XOXOXOX|.",
"OXOXOXOXOXOX|.l.r 0 s b b b m b m c g s 6 r x.OX*X*XOXOXOXOX",
"OXOXOXOXOXOXOXE.v.w < 2 z b b b c k 3 * w v.~.OXOXOXOXOXOXOX",
"OXOXOXOXOXOXOXOXE.l.<.! 4 < 2 < < 6 ( 1.l.E.OXOXOXOXOXOXOXOX",
"OXOXOXOXOXOXOXOXOX|.C.a.` t t y t ` 7.H.|.OXOXOXOXOXOXOXOXOX",
"OXOXOXOXOXOXOXOXOXOX'.~.K.K.K.K.K.L.~.[.OXOXOXOXOXOXOXOXOXOX",
"OXOXOXOXOXOXOXOXOXOX&X&X;X;X;X;X;X;X&X&XOXOXOXOXOXOXOXOXOXOX",
"OXOXOXOXOXOXOXOXOXOXOXOXOXOXOXOXOXOXOXOXOXOXOXOXOXOXOXOXOXOX",
"OXOXOXOXOXOXOXOXOXOXOXOXOXOXOXOXOXOXOXOXOXOXOXOXOXOXOXOXOXOX",
"OXOXOXOXOXOXOXOXOXOXOXOXOXOXOXOXOXOXOXOXOXOXOXOXOXOXOXOXOXOX",
"OXOXOXOXOXOXOXOXOXOXOXOXOXOXOXOXOXOXOXOXOXOXOXOXOXOX*XOXOXOX",
"OXOXOXOXOXOXOXOXOXOXOXOXOXOXOXOXOXOXOXOXOXOXOX*XOXOXOXOXOXOX",
"D.D.D.D.D.D.D.D.D.D.D.D.D.D.S.S.D.D.D.D.D.D.D.D.D.D.D.D.D.D.",
"k.A.k.k.k.k.k.k.k.k.k.k.k.k.k.k.k.k.k.k.k.k.k.k.k.k.k.k.k.k."
};
