/* XPM */
static char *restore[] = {
/* columns rows colors chars-per-pixel */
"24 21 44 1 ",
"  c black",
". c #090909",
"X c #0E0E0E",
"o c #0F0F0F",
"O c #1A1A1A",
"+ c #1E1E1E",
"@ c #1F1F1F",
"# c #202020",
"$ c gray15",
"% c #292929",
"& c #2D2D2D",
"* c #3B3B3B",
"= c #484848",
"- c #494949",
"; c #4E4E4E",
": c #4F4F4F",
"> c #595959",
", c #5A5A5A",
"< c #5C5C5C",
"1 c #5D5D5D",
"2 c #5F5F5F",
"3 c #606060",
"4 c #616161",
"5 c #636363",
"6 c #707070",
"7 c #737373",
"8 c #909090",
"9 c #929292",
"0 c #9E9E9E",
"q c #9F9F9F",
"w c #A0A0A0",
"e c #A1A1A1",
"r c #A5A5A5",
"t c #B0B0B0",
"y c #BBBBBB",
"u c #C0C0C0",
"i c #C1C1C1",
"p c #C2C2C2",
"a c #C3C3C3",
"s c #C5C5C5",
"d c #C6C6C6",
"f c #C7C7C7",
"g c #C8C8C8",
"h c #C9C9C9",
/* pixels */
"uuuuuuuuuuuuuuuuuuuuuuuu",
"uuuuuuu94455554445546tuu",
"uuuuuuu4            #efu",
"uuuuuuu4            #efu",
"uuuuuuu1o;544444444%#qfu",
"uuuuuuu,#ehuuuuuuuu,@qfu",
"uuuuuuu,#ehuuuuuuuu,@qfu",
"uut6144&o:5444449uu,@qfu",
"ufe#            4uu,@qfu",
"ufe#            4uu,@qfu",
"ufq#%444444444;o4hh1@qfu",
"ufq@,uuuuuuuuhe@-ee-@qfu",
"ufq@,ufuuuuuuhe#.##.#efu",
"ufq@,uuuuuuuufq#$,,,6tuu",
"ufq@,uuuuuuuuhe@,uuuuuuu",
"ufq@,uuuuuuuuhq@,uuuuuuu",
"ufq#$,,,,,,,,1-o1uuuuuuu",
"ufr*O@@@@@@@@@@@6uuuuuuu",
"uuyrqqqqqqqqqqqqtuuuuuuu",
"uuufffffffffffffuuuuuuuu",
"uuuuuuuuuuuuuuuuuuuuuuuu"
};
