/* XPM */
static char *restoreA[] = {
/* columns rows colors chars-per-pixel */
"30 72 216 2 ",
"   c #0F4712",
".  c #115415",
"X  c #145F18",
"o  c #146018",
"O  c #156419",
"+  c #156719",
"@  c #166719",
"#  c #15671A",
"$  c #16671A",
"%  c #127617",
"&  c #117A16",
"*  c #117A17",
"=  c #127B17",
"-  c #18751D",
";  c #19751D",
":  c #147C19",
">  c #147D19",
",  c #157D1A",
"<  c #167D1B",
"1  c #197A1E",
"2  c #1A7A1E",
"3  c #1A7C1E",
"4  c #1B8220",
"5  c #1C8220",
"6  c #1B8520",
"7  c #1C8421",
"8  c #1C8521",
"9  c #1C8621",
"0  c #1D8422",
"q  c #1D8522",
"w  c #1E8523",
"e  c #1E8623",
"r  c #1F8624",
"t  c #1A8A20",
"y  c #1B8A20",
"u  c #1E8D23",
"i  c #1E9023",
"p  c #1F9124",
"a  c #1F9224",
"s  c #1F9424",
"d  c #338A37",
"f  c #338B38",
"g  c #348B38",
"h  c #348B39",
"j  c #358B39",
"k  c #358C3A",
"l  c #368C3A",
"z  c #3B8D3F",
"x  c #1FB126",
"c  c #1FB127",
"v  c #1EB525",
"b  c #1EB526",
"n  c #1EB626",
"m  c #1FB627",
"M  c #20B127",
"N  c #20B128",
"B  c #21B128",
"V  c #20B228",
"C  c #27B72E",
"Z  c #27B72F",
"A  c #28B72F",
"S  c #26B82D",
"D  c #26B82E",
"F  c #26B92E",
"G  c #25BD2D",
"H  c #26BD2D",
"J  c #25BE2D",
"K  c #28B730",
"L  c #29B730",
"P  c #29B830",
"I  c #2AB830",
"U  c #28C02F",
"Y  c #28C030",
"T  c #28C330",
"R  c #29C431",
"E  c #29C531",
"W  c #29C631",
"Q  c #29C731",
"!  c #3B8D40",
"~  c #3C8D40",
"^  c #3C8E40",
"/  c #3D8E42",
"(  c #3D9342",
")  c #3E9342",
"_  c #3DB743",
"`  c #3DB843",
"'  c #3EB844",
"]  c #3FB845",
"[  c #409444",
"{  c #419445",
"}  c #419545",
"|  c #419546",
" . c #4B964F",
".. c #4C9750",
"X. c #4D9751",
"o. c #4E9751",
"O. c #4E9852",
"+. c #44B84A",
"@. c #45B84A",
"#. c #45B84B",
"$. c #46B84C",
"%. c #47BD4D",
"&. c #48BE4F",
"*. c #49BE4F",
"=. c #49BF4F",
"-. c #49BF50",
";. c #4ABE50",
":. c #4ABF50",
">. c #54BE59",
",. c #54BE5A",
"<. c #55BE5A",
"1. c #56BF5B",
"2. c #56BF5C",
"3. c #57BF5C",
"4. c #63A566",
"5. c #64A567",
"6. c #64A568",
"7. c #65A568",
"8. c #65A569",
"9. c #65A669",
"0. c #6AC66F",
"q. c #6BC670",
"w. c #6BC770",
"e. c #6CC771",
"r. c #81B684",
"t. c #82B685",
"y. c #85B787",
"u. c #86B888",
"i. c #87B889",
"p. c #87B989",
"a. c #95BE97",
"s. c #95BF97",
"d. c #96BF98",
"f. c #BFBFBF",
"g. c #87D08B",
"h. c #88D08C",
"j. c #8AD18E",
"k. c #8BD28E",
"l. c #8BD28F",
"z. c #8CD28F",
"x. c #9CC39F",
"c. c #8CD290",
"v. c #99D49C",
"b. c #9AD49D",
"n. c #9AD59D",
"m. c #9AD59E",
"M. c #9BD59E",
"N. c #9EC4A0",
"B. c #9FC4A0",
"V. c #9FC4A1",
"C. c #A1D8A4",
"Z. c #A2D8A5",
"A. c #A3D8A6",
"S. c #C7C7C7",
"D. c #C2D9C3",
"F. c #C4D9C5",
"G. c #C4DAC5",
"H. c #C5DAC6",
"J. c #CDDECE",
"K. c #CEDECE",
"L. c #D7D7D7",
"P. c #D0DFD1",
"I. c #D8D8D8",
"U. c #C4E4C6",
"Y. c #C6E4C8",
"T. c #C6E5C8",
"R. c #C7E5C8",
"E. c #C7E5C9",
"W. c #CFE6D0",
"Q. c #CFE6D1",
"!. c #D1E0D1",
"~. c #D1E0D2",
"^. c #D2E7D3",
"/. c #D2E7D4",
"(. c #D3E8D4",
"). c #DAE5DA",
"_. c #DBE5DB",
"`. c #DBE5DC",
"'. c #DBE6DC",
"]. c #DCE6DC",
"[. c #DCE6DD",
"{. c #DDE6DD",
"}. c #DDE7DD",
"|. c #DBEBDC",
" X c #DCEBDD",
".X c #DDEBDD",
"XX c #DDEBDE",
"oX c #DEECDE",
"OX c #DEECDF",
"+X c #E9E9E9",
"@X c #E9EDE9",
"#X c #E9EDEA",
"$X c #EAEEEA",
"%X c #EAEFEA",
"&X c #EAF0EA",
"*X c #EAF0EB",
"=X c #EFF0EF",
"-X c #EFF1EF",
";X c #EFF0F0",
":X c #F0F1F0",
">X c #F2F2F2",
",X c #F3F2F2",
"<X c #F2F2F3",
"1X c #F3F2F3",
"2X c #F3F3F3",
"3X c #F4F3F4",
"4X c #F6F3F6",
"5X c #F4F4F4",
"6X c #F6F4F6",
"7X c #F7F4F6",
"8X c #F7F5F7",
"9X c #F8F4F8",
"0X c #F9F4F8",
"qX c #F9F4F9",
"wX c #F9F6F9",
"eX c #FAF6F9",
/* pixels */
">X>X>X>X>X>X>X>X>X>X>X>X>X>X>X>X>X>X>X>X>X>X>X>X>X>X>X>X>X>X",
">X>X>X>X>X>X>X>X>X>X>X>X>X>X>X>X>X>X>X>X>X>X>X>X>X>X>X>X>X>X",
">X>X>X>X>X>X>X>X>X>X>X>X>X>X>X>X>X>X>X>X>X>X>X>X>X>X>X>X>X>X",
">X>X>X>X>X>X>X>X>X>X>X>X>X=X>X>X>X>X>X>X>X>X>X>X>X>X>X>X>X>X",
">X>X>X>X>X>X>X>X>X>X>X>X>X>X>X>X>X>X>X>X>X>X>X>X>X>X>X>X>X>X",
">X>X>X>X>X>X>X>X>X>X>X>X>X>X>X>X>X>X>X>X>X>X>X>X>X>X>X>X>X>X",
">X>X>X>X>X>X>X>X>X>X>X>X>X>X>X>X>X>X>X>X>X>X>X>X>X>X>X>X>X>X",
">X>X>X>X>X>X>X>X>X>X4X4X9X9X9X9X9X4X4X4X>X>X>X>X>X>X>X>X>X>X",
">X>X>X>X>X>X>X>X>X>X%XXX(.^.W.W.^.^.XX&X>X>X>X>X>X>X>X>X>X>X",
">X>X>X>X>X>X>X>X2X%XE.c.3.$.$.#.$.,.l.U.>X>X>X>X>X>X>X>X>X>X",
">X>X>X>X>X>X>X>XXXM.e.:.L m m m m A &.w.b.XX>X>X>X>X>X>X>X>X",
">X>X>X>X>X>X>XXXA.] N D I R R T R U D x ' Z.|.>X>X>X>X>X>X>X",
">X>X>X>X>X>X>Xb.` K G T Q Q Q R R R R T L _ v.>X>X>X>X>X>X>X",
">X>X>X>X4X%XU.e.x G T Q Q Q Q Q Q Q Q R G x 0.Y.%X4X>X>X>X>X",
">X>X>X>X4XXXl.&.D Q Q Q Q Q Q R R Q R Q T Z &.j.XX4X>X>X>X>X",
">X>X>X>X9X/.2.Z T R Q Q Q Q Q Q Q Q Q Q R G Z ,.^.4X>X>X>X>X",
">X>X>X>X9XW.#.m R Q Q Q Q Q R Q Q Q Q Q Q R m +.W.9X>X>X>X>X",
">X>X>X>X9XW.#.m R Q R Q Q R Q Q R Q Q T R Q m +.W.9X>X>X>X>X",
">X>X>X>X9XW.#.V R Q Q Q Q Q Q Q Q R Q Q R R m $.W.9X>X>X>X>X",
">X>X>X>X9XW.+.m R R Q Q Q R Q R Q Q Q Q Q R m +.^.9X>X>X>X>X",
">X>X>X>X9X(.,.A T R R R Q Q Q Q R Q R Q R T Z 2./.9X>X>X>X>X",
">X>X>X>X8XXXl.%.D R Q Q Q Q R Q Q Q Q Q Q D :.l.XX4X>X>X>X>X",
">X>X>X>X2X%XU.0.N G R R Q R Q R Q Q R R G N e.E.%X>X>X>X>X>X",
">X>X>X>X>X>X=Xb.' P G Q R Q Q R Q R T G P ' b.=X>X>X>X>X>X>X",
">X>X>X>X>X>X>X|.C._ M Z G R R R R Y D x _ Z.XX>X>X>X>X>X>X>X",
">X>X>X>X>X>X>X>X|.M.0.%.Z m m m m P =.w.b.XX>X>X>X>X>X>X>X>X",
">X>X>X>X>X>X>X>X>X=XU.g.,.#.$.+.+.,.l.E.=X>X>X>X>X>X>X>X>X>X",
">X>X>X>X>X>X>X>X>X>X%X|./.W.W.^.W.^.oX&X>X>X>X>X>X>X>X>X>X>X",
">X>X>X>X>X>X>X>X>X>X4X4X8X9X9X9X9X9X8X4X>X>X>X>X>X>X>X>X>X>X",
">X>X>X>X>X>X>X>X>X>X>X>X>X>X>X>X>X>X>X>X>X>X>X>X>X>X>X>X>X>X",
">X>X>X>X>X>X>X>X>X>X>X>X>X>X>X>X>X>X>X>X>X>X>X>X>X>X>X>X>X>X",
">X>X>X>X>X>X>X>X>X>X>X>X>X>X>X>X>X>X>X>X>X>X>X>X>X>X>X>X>X>X",
">X>X>X>X>X>X>X>X2X>X>X>X>X>X>X>X2X>X>X>X>X>X:X2X>X>X>X>X>X>X",
"2X2X>X>X>X>X>X>X>X2X>X>X>X>X>X>X>X>X2X>X>X>X4X:X>X>X>X>X>X>X",
"I.L.L.L.L.L.L.L.I.L.L.L.L.L.L.L.I.L.L.L.L.L.L.L.I.L.L.L.L.L.",
"S.S.S.S.S.S.S.S.S.S.S.S.S.S.S.S.S.S.S.S.S.S.S.S.S.S.S.S.S.S.",
"$X$X+X+X$X+X+X+X$X+X+X+X$X+X+X$X+X$X+X+X$X+X+X$X$X+X+X+X$X+X",
"2X2X4X2X2X2X2X4X2X4X2X>X2X8X>X5X4X>X4X>X8X2X>X>X4X>X2X2X5X>X",
">X>X:X:X>X>X>X>X>X>X>X>X>X>X>X>X>X>X>X>X>X>X>X>X>X>X>X>X>X>X",
">X>X>X>X>X>X>X>X>X>X>X>X>X>X>X>X>X>X>X>X>X>X>X>X>X>X>X>X>X>X",
">X>X:X4X:X>X>X>X>X>X>X>X>X>X>X>X>X>X>X>X>X>X>X>X>X>X>X>X>X>X",
">X>X>X>X>X>X>X>X>X>X>X>X>X>X>X>X>X>X>X>X>X>X>X>X>X>X>X>X>X>X",
">X>X>X>X>X>X>X>X>X>X>X>X>X>X>X>X>X>X>X>X>X>X>X>X>X>X>X>X>X>X",
">X>X>X>X>X>X>X>X>X>X4X9X8X9X9XeX9X9X8X2X>X>X>X>X>X>X>X>X>X>X",
">X>X>X>X:X>X>X>X>X>X%X}.P.J.J.J.J.P.}.%X>X>X>X>X>X>X>X>X>X>X",
">X>X>X>X>X>X>X2X>X;XH.i.../ / ~ / ..i.H.%X4X>X>X>X>X>X>X>X>X",
">X:X>X>X>X>X>X4X}.d.6.[ r = % % = r [ 6.d.`.>X>X>X>X>X>X>X>X",
">X>X>X>X>X>X>X).V.l : q u q - ; q u 9 : l N.`.>X>X>X>X>X>X>X",
">X>X>X>X>X>X;Xd.f r y a a 3 # O 3 a a y r f d.:X>X:X>X>X>X>X",
">X>X>X>X8X$XH.6.: y a s a 1 X X 1 s s a y : 5.G.$X4X>X>X>X>X",
">X>X>X>X9X}.i.{ 6 a s s a 1 X o 1 s s a a 6 [ y.}.4X>X>X>X>X",
">X>X>X>X9X~...9 u a s s s 1 o o 1 s s a a u q ..P.9X>X>X>X>X",
">X>X>X>X9XP.! = 4 1 1 1 1 $ . . # 1 1 1 1 4 = ~ J.9X>X>X>X>X",
">X>X>X>X9XJ./ % - # o o o .     . X O X O ; % / P.9X>X>X>X>X",
">X>X>X>X9XJ./ % - # o o o .     . X O X O ; % / J.eX2X>X>X>X",
":X2X>X>X9XP.! = 4 1 1 1 1 $ . . # 1 1 1 1 4 = / J.9X>X>X>X>X",
">X>X>X>X9XP...9 u a s s s 1 o o 1 s s s a u w O.P.8X>X>X>X>X",
">X>X>X>X9X}.t.( 6 i s s s 1 o o 1 s s s i 9 [ i.}.4X>X>X>X>X",
">X>X>X>X4X%XD.6.: y a a a 1 o o 1 s s i u : 6.H.%X4X>X>X>X>X",
">X>X>X>X>X>X;Xd.k r y a a 1 O # 3 a i t 9 l d.:X>X>X>X>X>X>X",
">X>X>X>X>X>X>X).x.l : 4 u 4 - - q u 4 : d x.).>X>X>X>X>X>X>X",
">X>X>X>X>X>X>X>X).a.4.( 9 = % % = q [ 6.a.}.>X>X>X>X>X>X>X>X",
">X>X>X>X>X>X>X>X>X=XD.r. .z / / ~ ..i.G.>X>X>X>X>X>X>X>X>X>X",
">X>X>X>X>X>X>X>X>X>X%X`.P.J.P.J.J.P.}.%X>X>X>X>X>X>X>X>X>X;X",
">X>X>X;X>X>X>X>X>X>X8X8X9X9X9XeXeX8X8X2X,X,X,X,X,X,X,X,X,X,X",
">X>X>X>X>X>X>X>X>X>X>X>X2X2X>X>X2X2X2X2X,X,X;X,X,X,X,X,X,X;X",
">X>X>X>X>X>X>X>X>X>X>X>X>X>X>X>X>X>X2X>X;X,X3X;X;X,X,X;X,X,X",
">X>X>X>X>X>X>X>X>X>X>X>X>X>X>X>X>X>X>X>X,X,X,X,X,X,X,X,X,X,X",
"5X>X>X>X>X>X>X>X5X>X>X2X>X>X>X>X2X2X3X,X,X3X3X,X,X,X,X,X,X,X",
">X>X>X>X>X>X>X>X>X>X>X>X>X5X>X>X2X;X3X4X3X;X3X3X,X,X,X,X,X,X",
"I.I.I.I.I.I.I.I.I.I.I.I.I.I.I.I.I.I.I.I.L.L.L.L.I.I.L.L.L.L.",
"f.f.f.f.f.f.f.f.f.f.f.f.f.f.f.f.V.S.S.f.f.f.f.f.f.f.f.f.f.f."
};
