/* XPM */
static char *titleIQ[] = {
/* columns rows colors chars-per-pixel */
"11 36 27 1 ",
"  c #B2B2B2",
". c #B4B4B4",
"X c #B5B5B5",
"o c #B9B9B9",
"O c #BFBFBF",
"+ c #C2C2C2",
"@ c #C3C3C3",
"# c #C5C5C5",
"$ c #C8C8C8",
"% c #C9C9C9",
"& c #CACACA",
"* c #CBCBCB",
"= c #D2D2D2",
"- c #D3D3D3",
"; c #D4D4D4",
": c #D5D5D5",
"> c #D7D7D7",
", c #DCDCDC",
"< c #DDDDDD",
"1 c #DEDEDE",
"2 c #E1E1E1",
"3 c #E2E2E2",
"4 c #E3E3E3",
"5 c #E4E4E4",
"6 c #E5E5E5",
"7 c #E6E6E6",
"8 c None",
/* pixels */
"666666>#X88",
"666666<=@X8",
"66666662>O ",
"666666662$ ",
"666666666=@",
"666666666<>",
"6666666662<",
"66666666662",
"66666666662",
"66666666622",
"66666666622",
"66666666666",
"66666666662",
"66666666622",
"66666666662",
"66666666662",
"66666666662",
"66666666662",
"66666666622",
"66666666666",
"66666666622",
"66666666662",
"66666666666",
"66666666662",
"66662666622",
"66666666662",
"66666666662",
"66666666662",
"66666666662",
"66666666622",
"66666666662",
"66666666662",
"66666767666",
"66666667662",
"********$$$",
"        X X"
};
