/* XPM */
static char *titleIJ[] = {
/* columns rows colors chars-per-pixel */
"11 36 27 1 ",
"  c #B2B2B2",
". c #B4B4B4",
"X c #B5B5B5",
"o c #B9B9B9",
"O c #BFBFBF",
"+ c #C2C2C2",
"@ c #C3C3C3",
"# c #C5C5C5",
"$ c #C8C8C8",
"% c #C9C9C9",
"& c #CACACA",
"* c #CBCBCB",
"= c #D2D2D2",
"- c #D3D3D3",
"; c #D4D4D4",
": c #D5D5D5",
"> c #D7D7D7",
", c #DCDCDC",
"< c #DDDDDD",
"1 c #DEDEDE",
"2 c #E1E1E1",
"3 c #E2E2E2",
"4 c #E3E3E3",
"5 c #E4E4E4",
"6 c #E5E5E5",
"7 c #E6E6E6",
"8 c None",
/* pixels */
"88.#>266666",
"8o+-1666666",
" +-26666666",
".$266666666",
"#-676666666",
">1666666666",
",1666666666",
"22666666666",
"22666666666",
"66666666666",
"22666666666",
"66666666666",
"26666666666",
"22666666666",
"62666666666",
"26666666666",
"26666666666",
"22666666666",
"26666666666",
"26666666666",
"26666666666",
"26666666666",
"26666666666",
"22666666666",
"26666666666",
"26666666666",
"26666666666",
"26666666666",
"26666666666",
"22666666666",
"26666666666",
"26666666666",
"26667767676",
"26666767666",
"$$**$******",
".      ..  "
};
