/* XPM */
static char *titleAJ[] = {
/* columns rows colors chars-per-pixel */
"11 36 27 1 ",
"  c #BFBFBF",
". c #C1C1C1",
"X c #C2C2C2",
"o c #C6C6C6",
"O c #CCCCCC",
"+ c #CFCFCF",
"@ c #D0D0D0",
"# c #D2D2D2",
"$ c #D5D5D5",
"% c #D6D6D6",
"& c #D7D7D7",
"* c #D8D8D8",
"= c #DFDFDF",
"- c #E0E0E0",
"; c #E1E1E1",
": c #E2E2E2",
"> c #E4E4E4",
", c #E9E9E9",
"< c #EAEAEA",
"1 c #EBEBEB",
"2 c #EEEEEE",
"3 c #EFEFEF",
"4 c #F0F0F0",
"5 c #F1F1F1",
"6 c #F2F2F2",
"7 c #F3F3F3",
"8 c None",
/* pixels */
"88.$>666666",
"8oO=2666666",
" O;26666666",
".$266666666",
"@=666666666",
";,666666666",
",2666666666",
"26666666666",
"26666666666",
"26666666666",
"26666666666",
"22666666666",
"62666666666",
"26666666666",
"26666666666",
"62666666666",
"22666666666",
"66266666666",
"26666666666",
"22666666666",
"62666666666",
"26666666666",
"26666666666",
"26666666666",
"26666666666",
"26666666666",
"26666666666",
"26666666666",
"22666666666",
"62666666666",
"26666666666",
"26666666666",
"26666666766",
"26666667676",
"$$$****$***",
".  .  ...  "
};
