/* XPM */
static char *titleIR[] = {
/* columns rows colors chars-per-pixel */
"2 36 3 1 ",
"  c #B2B2B2",
". c #CBCBCB",
"X c #E5E5E5",
/* pixels */
"XX",
"XX",
"XX",
"XX",
"XX",
"XX",
"XX",
"XX",
"XX",
"XX",
"XX",
"XX",
"XX",
"XX",
"XX",
"XX",
"XX",
"XX",
"XX",
"XX",
"XX",
"XX",
"XX",
"XX",
"XX",
"XX",
"XX",
"XX",
"XX",
"XX",
"XX",
"XX",
"XX",
"XX",
"..",
"  "
};
