/* XPM */
static char *titleAQ[] = {
/* columns rows colors chars-per-pixel */
"11 36 27 1 ",
"  c #BFBFBF",
". c #C1C1C1",
"X c #C2C2C2",
"o c #C6C6C6",
"O c #CCCCCC",
"+ c #CFCFCF",
"@ c #D0D0D0",
"# c #D2D2D2",
"$ c #D5D5D5",
"% c #D6D6D6",
"& c #D7D7D7",
"* c #D8D8D8",
"= c #DFDFDF",
"- c #E0E0E0",
"; c #E1E1E1",
": c #E2E2E2",
"> c #E4E4E4",
", c #E9E9E9",
"< c #EAEAEA",
"1 c #EBEBEB",
"2 c #EEEEEE",
"3 c #EFEFEF",
"4 c #F0F0F0",
"5 c #F1F1F1",
"6 c #F2F2F2",
"7 c #F3F3F3",
"8 c None",
/* pixels */
"666666:#X88",
"6666661=Oo8",
"66666661:O ",
"666666771$ ",
"666666676:#",
"6666666661:",
"66666666611",
"66666666661",
"66666666661",
"66666666666",
"66666666611",
"66666666666",
"66666666661",
"66666666666",
"66666666666",
"66666666611",
"66666666611",
"66666666666",
"66666666666",
"66666666666",
"66666666666",
"66666666611",
"66666666666",
"66666666661",
"66666666661",
"66666666661",
"66666666666",
"66666666761",
"66666666616",
"66666666661",
"66666666666",
"66666666661",
"66666767666",
"66667776661",
"****$***$$$",
"        X X"
};
