/* XPM */
static char * start_xpm[] = {
"51 36 10 1",
" 	c #E5E5E5",
".	c #E6E5E5",
"+	c #E7E7E6",
"@	c #E6E6E6",
"#	c #325685",
"$	c #E4E4E4",
"%	c #E2E2E3",
"&	c #E3E3E3",
"*	c #E4E4E5",
"=	c #E3E3E4",
"                                                   ",
"                                                   ",
"                                                   ",
"                                                   ",
"                                                   ",
"              .++++++++@    @++++++++@             ",
"             ###########$   ###########            ",
"             ###########%   ###########            ",
"             ###########%   ###########            ",
"             ###########%   ###########            ",
"             ###########%   ###########            ",
"             ###########%   ###########            ",
"             ###########%   ###########            ",
"             ###########%   ###########            ",
"             ###########%   ###########            ",
"             ###########&   ###########            ",
"             ###########    ###########            ",
"                                                   ",
"                                                   ",
"              *========$    $========$             ",
"             ###########&   ###########            ",
"             ###########%   ###########            ",
"             ###########%   ###########            ",
"             ###########%   ###########            ",
"             ###########%   ###########            ",
"             ###########%   ###########            ",
"             ###########%   ###########            ",
"             ###########%   ###########            ",
"             ###########%   ###########            ",
"             ###########$   ###########            ",
"             ###########    ###########            ",
"                                                   ",
"                                                   ",
"                                                   ",
"                                                   ",
"                                                   "};
