/* XPM */
static char * taskbuttonactive_xpm[] = {
"1 25 2 1",
" 	c #E5E5E5",
".	c #6E8FB6",
" ",
" ",
" ",
" ",
" ",
" ",
" ",
" ",
" ",
" ",
" ",
" ",
" ",
" ",
" ",
" ",
" ",
" ",
" ",
" ",
" ",
" ",
" ",
".",
"."};
