/* XPM */
static char * windows_xpm[] = {
"22 22 2 1",
" 	c None",
".	c #5D6369",
"                      ",
"                      ",
"                      ",
"   ...................",
"   ...................",
"   ...             ...",
"   ..              ...",
"   ..              ...",
"   ..              ...",
"   ..              ...",
"   ..          ..  ...",
"   ..         .... ...",
"   ..         .... ...",
"   ..         .... ...",
"   ..              ...",
"   ..              ...",
"   ...             ...",
"   ...................",
"   ...................",
"                      ",
"                      ",
"                      "};
